<svg width="29" height="28" viewBox="0 0 29 28" fill="none" xmlns="http://www.w3.org/2000/svg">
<path d="M20.3917 23.66C19.2483 24.7683 18 24.5933 16.7983 24.0683C15.5267 23.5317 14.36 23.5083 13.0183 24.0683C11.3383 24.7917 10.4517 24.5817 9.44833 23.66C3.755 17.7917 4.595 8.855 11.0583 8.52833C12.6333 8.61 13.73 9.39167 14.6517 9.46167C16.0283 9.18167 17.3467 8.37667 18.8167 8.48167C20.5783 8.62167 21.9083 9.32167 22.7833 10.5817C19.1433 12.7633 20.0067 17.5583 23.3433 18.9C22.6783 20.65 21.815 22.3883 20.38 23.6717L20.3917 23.66ZM14.535 8.45833C14.36 5.85667 16.4717 3.71 18.8983 3.5C19.2367 6.51 16.1683 8.75 14.535 8.45833Z" fill="#201E20"/>
</svg>
