<svg width="29" height="28" viewBox="0 0 29 28" fill="none" xmlns="http://www.w3.org/2000/svg">
<path d="M25.9397 11.7152H25V11.6668H14.5V16.3335H21.0934C20.1315 19.0501 17.5467 21.0002 14.5 21.0002C10.6342 21.0002 7.49999 17.8659 7.49999 14.0002C7.49999 10.1344 10.6342 7.00016 14.5 7.00016C16.2844 7.00016 17.9078 7.67333 19.1439 8.77291L22.4438 5.473C20.3602 3.53108 17.573 2.3335 14.5 2.3335C8.05708 2.3335 2.83333 7.55725 2.83333 14.0002C2.83333 20.4431 8.05708 25.6668 14.5 25.6668C20.9429 25.6668 26.1667 20.4431 26.1667 14.0002C26.1667 13.2179 26.0862 12.4543 25.9397 11.7152Z" fill="#FFC107"/>
<path d="M4.1785 8.56991L8.01158 11.381C9.04875 8.81316 11.5606 7.00016 14.5 7.00016C16.2844 7.00016 17.9078 7.67333 19.1439 8.77291L22.4438 5.473C20.3602 3.53108 17.573 2.3335 14.5 2.3335C10.0188 2.3335 6.13266 4.86341 4.1785 8.56991Z" fill="#FF3D00"/>
<path d="M14.5 25.6666C17.5135 25.6666 20.2517 24.5133 22.3219 22.6379L18.7111 19.5824C17.5004 20.5031 16.021 21.0011 14.5 20.9999C11.4655 20.9999 8.88892 19.065 7.91825 16.3647L4.11375 19.296C6.04459 23.0742 9.96575 25.6666 14.5 25.6666Z" fill="#4CAF50"/>
<path d="M25.9397 11.7149H25V11.6665H14.5V16.3332H21.0934C20.6333 17.6261 19.8045 18.7559 18.7093 19.5829L18.7111 19.5818L22.3219 22.6373C22.0664 22.8694 26.1667 19.8332 26.1667 13.9998C26.1667 13.2176 26.0862 12.454 25.9397 11.7149Z" fill="#00AE31"/>
</svg>
