<svg width="373" height="424" viewBox="0 0 373 424" fill="none" xmlns="http://www.w3.org/2000/svg">
<g clip-path="url(#clip0_2018_2995)">
<mask id="mask0_2018_2995" style="mask-type:luminance" maskUnits="userSpaceOnUse" x="0" y="0" width="373" height="424">
<path d="M373 0H0V424H373V0Z" fill="white"/>
</mask>
<g mask="url(#mask0_2018_2995)">
<mask id="mask1_2018_2995" style="mask-type:luminance" maskUnits="userSpaceOnUse" x="0" y="0" width="373" height="424">
<path d="M373 0H0V424H373V0Z" fill="white"/>
</mask>
<g mask="url(#mask1_2018_2995)">
<mask id="mask2_2018_2995" style="mask-type:luminance" maskUnits="userSpaceOnUse" x="0" y="0" width="373" height="424">
<path d="M373 0H0V424H373V0Z" fill="white"/>
</mask>
<g mask="url(#mask2_2018_2995)">
<mask id="mask3_2018_2995" style="mask-type:luminance" maskUnits="userSpaceOnUse" x="0" y="0" width="373" height="424">
<path d="M373 0H0V424H373V0Z" fill="white"/>
</mask>
<g mask="url(#mask3_2018_2995)">
<path d="M57.2499 130.704C56.1007 133.316 54.8338 136.137 53.7237 138.892C52.6136 141.648 51.4644 144.482 50.4587 147.303C48.3954 152.802 46.741 158.446 45.509 164.189L45.1303 166.279L44.9997 167.063C44.9997 167.285 44.9997 167.572 44.9213 167.833C44.8716 169.105 44.8978 170.378 44.9997 171.647C45.2478 174.402 45.6918 177.354 46.3057 180.305C47.4027 186.222 48.8001 192.321 50.2237 198.328L43.5239 200.94C40.4007 195.247 37.741 189.312 35.5703 183.192C34.4267 180.006 33.5017 176.747 32.8016 173.436C32.4094 171.604 32.1648 169.743 32.0703 167.872V166.292C32.0703 165.73 32.0703 165.104 32.1617 164.738L32.4229 162.126C32.8131 158.762 33.4106 155.425 34.2121 152.135C34.9435 148.87 35.8838 145.696 36.8241 142.562C37.7644 139.428 38.9398 136.345 40.1805 133.316C40.7943 131.801 41.4865 130.299 42.0873 128.797C42.688 127.295 43.3933 125.858 44.2291 124.252L57.2499 130.704Z" fill="#E4897B"/>
<path d="M49.8714 196.565L54.9648 201.541L43.8507 206.765C43.8507 206.765 41.1604 202.05 43.028 197.793L49.8714 196.565Z" fill="#E4897B"/>
<path d="M59.0782 208.946L49.688 212.786L43.8633 206.713L54.9643 201.541L59.0782 208.946Z" fill="#E4897B"/>
<path opacity="0.4" d="M249.298 203.591C230.819 201.517 213.37 194.01 199.157 182.02C184.944 170.03 174.606 154.095 169.448 136.23C164.29 118.365 164.544 99.3717 170.179 81.6513C175.814 63.9309 186.576 48.2789 201.106 36.6742C215.635 25.0695 233.278 18.033 251.806 16.4543C270.334 14.8756 288.914 18.8255 305.197 27.8048C321.48 36.784 334.735 50.3894 343.287 66.901C351.839 83.4126 355.303 102.089 353.242 120.569C351.873 132.847 348.097 144.735 342.132 155.554C336.166 166.372 328.127 175.909 318.473 183.619C308.82 191.329 297.742 197.062 285.873 200.489C274.003 203.916 261.575 204.97 249.298 203.591Z" fill="#FAFAFA"/>
<path opacity="0.4" d="M317.706 36.0578L174.699 150.32C174.098 149.014 173.511 147.708 172.962 146.402C169.377 137.874 167.083 128.859 166.158 119.655L289.679 20.9604C299.82 24.3432 309.302 29.4506 317.706 36.0578Z" fill="#FAFAFA"/>
<path opacity="0.4" d="M350.709 86.1166L216.256 193.535C203.483 186.877 192.414 177.367 183.906 165.744L330.714 48.4385C340.177 59.3004 347.018 72.1914 350.709 86.1166Z" fill="#FAFAFA"/>
<path d="M153.933 74.2062L152.692 73.7882C154.841 67.4476 157.541 61.3077 160.763 55.439L161.899 56.0658C158.72 61.8689 156.054 67.9388 153.933 74.2062ZM169.787 43.7241L168.73 42.9536C179.462 28.4411 193.509 16.7049 209.699 8.72338L210.286 9.89878C194.281 17.7979 180.395 29.4087 169.787 43.7633V43.7241ZM312.912 11.688C308.644 9.3989 304.229 7.39631 299.695 5.69346L300.165 4.46582C304.744 6.20861 309.202 8.25037 313.513 10.5779L312.912 11.688Z" fill="#000080"/>
<path opacity="0.3" d="M153.933 74.2062L152.692 73.7882C154.841 67.4476 157.541 61.3077 160.763 55.439L161.899 56.0658C158.72 61.8689 156.054 67.9388 153.933 74.2062ZM169.787 43.7241L168.73 42.9536C179.462 28.4411 193.509 16.7049 209.699 8.72338L210.286 9.89878C194.281 17.7979 180.395 29.4087 169.787 43.7633V43.7241ZM312.912 11.688C308.644 9.3989 304.229 7.39631 299.695 5.69346L300.165 4.46582C304.744 6.20861 309.202 8.25037 313.513 10.5779L312.912 11.688Z" fill="black"/>
<path d="M356.99 62.1126C344.897 37.0313 323.616 17.5655 297.559 7.75052C271.501 -2.06445 242.666 -1.47576 217.031 9.39456C191.396 20.2649 170.928 40.5831 159.868 66.1371C148.809 91.6911 148.007 120.521 157.629 146.65C148.905 149.706 140.286 152.984 131.718 156.366C119.364 161.268 107.122 166.388 94.9934 171.725C82.8738 177.093 70.8063 182.565 58.8564 188.285C52.8619 191.093 46.9457 194.058 40.9773 196.931C37.8724 198.265 35.0593 200.195 32.6972 202.612C31.419 203.95 30.2933 205.426 29.3408 207.013C28.1786 208.89 27.2985 210.927 26.7288 213.06C25.7461 216.903 26.1711 220.971 27.9269 224.528C29.6827 228.085 32.6534 230.897 36.3018 232.454C38.3278 233.304 40.4654 233.858 42.649 234.1C44.4932 234.308 46.3552 234.308 48.1995 234.1C51.551 233.693 54.7901 232.632 57.7333 230.978C63.6494 227.988 69.6048 225.101 75.4818 222.032C87.2358 216.038 98.9898 209.782 110.6 203.435C122.211 197.088 133.834 190.44 145.17 183.623C153.006 178.882 160.921 174.037 168.678 168.969C183.575 192.486 206.948 209.37 233.954 216.123C260.96 222.876 289.529 218.981 313.742 205.244C337.954 191.506 355.953 168.981 364.009 142.334C372.066 115.688 369.562 86.9633 357.016 62.1126H356.99ZM297.62 186.875C282.442 194.366 265.384 197.189 248.602 194.987C231.82 192.784 216.069 185.655 203.339 174.5C190.608 163.346 181.472 148.667 177.084 132.32C172.695 115.973 173.253 98.6921 178.686 82.662C184.119 66.6319 194.183 52.5727 207.606 42.2621C221.028 31.9515 237.207 25.8526 254.096 24.7364C270.985 23.6203 287.825 27.537 302.488 35.9915C317.151 44.446 328.978 57.0585 336.473 72.2341C341.451 82.3125 344.394 93.2726 345.135 104.488C345.877 115.705 344.401 126.957 340.793 137.602C337.185 148.248 331.515 158.079 324.107 166.533C316.7 174.987 307.699 181.899 297.62 186.875Z" fill="#000080"/>
<path opacity="0.3" d="M356.99 62.1126C344.897 37.0313 323.616 17.5655 297.559 7.75052C271.501 -2.06445 242.666 -1.47576 217.031 9.39456C191.396 20.2649 170.928 40.5831 159.868 66.1371C148.809 91.6911 148.007 120.521 157.629 146.65C148.905 149.706 140.286 152.984 131.718 156.366C119.364 161.268 107.122 166.388 94.9934 171.725C82.8738 177.093 70.8063 182.565 58.8564 188.285C52.8619 191.093 46.9457 194.058 40.9773 196.931C37.8724 198.265 35.0593 200.195 32.6972 202.612C31.419 203.95 30.2933 205.426 29.3408 207.013C28.1786 208.89 27.2985 210.927 26.7288 213.06C25.7461 216.903 26.1711 220.971 27.9269 224.528C29.6827 228.085 32.6534 230.897 36.3018 232.454C38.3278 233.304 40.4654 233.858 42.649 234.1C44.4932 234.308 46.3552 234.308 48.1995 234.1C51.551 233.693 54.7901 232.632 57.7333 230.978C63.6494 227.988 69.6048 225.101 75.4818 222.032C87.2358 216.038 98.9898 209.782 110.6 203.435C122.211 197.088 133.834 190.44 145.17 183.623C153.006 178.882 160.921 174.037 168.678 168.969C183.575 192.486 206.948 209.37 233.954 216.123C260.96 222.876 289.529 218.981 313.742 205.244C337.954 191.506 355.953 168.981 364.009 142.334C372.066 115.688 369.562 86.9633 357.016 62.1126H356.99ZM297.62 186.875C282.442 194.366 265.384 197.189 248.602 194.987C231.82 192.784 216.069 185.655 203.339 174.5C190.608 163.346 181.472 148.667 177.084 132.32C172.695 115.973 173.253 98.6921 178.686 82.662C184.119 66.6319 194.183 52.5727 207.606 42.2621C221.028 31.9515 237.207 25.8526 254.096 24.7364C270.985 23.6203 287.825 27.537 302.488 35.9915C317.151 44.446 328.978 57.0585 336.473 72.2341C341.451 82.3125 344.394 93.2726 345.135 104.488C345.877 115.705 344.401 126.957 340.793 137.602C337.185 148.248 331.515 158.079 324.107 166.533C316.7 174.987 307.699 181.899 297.62 186.875Z" fill="black"/>
<path d="M93.3477 84.0663C93.3477 84.8368 93.7526 85.4637 94.2619 85.4637C94.7713 85.4637 95.1761 84.8368 95.1761 84.0663C95.1761 83.2957 94.7713 82.6689 94.2619 82.6689C93.7526 82.6689 93.3477 83.348 93.3477 84.0663Z" fill="#263238"/>
<path d="M93.7139 85.4639C94.6383 87.8292 95.8818 90.057 97.4098 92.0853C96.8815 92.4633 96.277 92.7211 95.6385 92.8406C95 92.9602 94.3431 92.9387 93.7139 92.7775V85.4639Z" fill="#DE5753"/>
<path d="M90.6442 79.7697C90.5714 79.7698 90.4995 79.7534 90.4339 79.7217C90.3683 79.69 90.3107 79.644 90.2655 79.5869C90.1974 79.4872 90.1703 79.3652 90.1897 79.2461C90.2092 79.1269 90.2737 79.0198 90.3699 78.947C90.9451 78.5108 91.6172 78.22 92.3289 78.0995C93.0407 77.979 93.771 78.0323 94.4577 78.2548C94.5194 78.2716 94.5768 78.3011 94.6264 78.3415C94.6759 78.3819 94.7165 78.4323 94.7453 78.4893C94.7742 78.5463 94.7908 78.6088 94.7941 78.6726C94.7973 78.7364 94.7871 78.8003 94.7642 78.8599C94.7412 78.9196 94.706 78.9738 94.6608 79.019C94.6157 79.0642 94.5615 79.0994 94.5018 79.1224C94.4422 79.1454 94.3784 79.1556 94.3145 79.1523C94.2507 79.1491 94.1883 79.1326 94.1312 79.1037C93.5857 78.9364 93.0081 78.9024 92.4467 79.0047C91.8854 79.107 91.3568 79.3425 90.9054 79.6914C90.828 79.7427 90.7371 79.77 90.6442 79.7697Z" fill="#263238"/>
<path d="M66.9668 89.8779C68.2728 96.8911 69.7094 109.755 64.7988 114.444C64.7988 114.444 66.7187 121.562 79.7656 121.562C94.1316 121.562 86.609 114.444 86.609 114.444C78.773 112.563 78.9951 106.765 80.3533 101.305L66.9668 89.8779Z" fill="#E4897B"/>
<path d="M58.9349 118.14C60.489 115.724 57.877 109.86 57.877 109.86C57.877 109.86 80.9671 104.048 90.4095 112.968C92.3685 114.81 90.2005 117.526 90.2005 117.526L58.9349 118.14Z" fill="#000080"/>
<path opacity="0.1" d="M58.9349 118.14C60.489 115.724 57.877 109.86 57.877 109.86C57.877 109.86 80.9671 104.048 90.4095 112.968C92.3685 114.81 90.2005 117.526 90.2005 117.526L58.9349 118.14Z" fill="black"/>
<path d="M20.734 384.603C19.5194 384.603 17.5735 382.579 16.9988 381.821C16.9741 381.785 16.9609 381.741 16.9609 381.697C16.9609 381.653 16.9741 381.61 16.9988 381.573C17.0199 381.537 17.0504 381.506 17.0872 381.486C17.124 381.465 17.1656 381.455 17.2078 381.456C17.3514 381.456 20.5511 381.743 21.4262 382.879C21.5213 382.999 21.5893 383.138 21.6253 383.287C21.6614 383.436 21.6648 383.591 21.6351 383.741C21.6238 383.935 21.5523 384.122 21.4307 384.274C21.309 384.426 21.1432 384.536 20.956 384.59L20.734 384.603ZM17.7041 381.991C18.6575 383.088 20.1855 384.329 20.8385 384.172C20.8385 384.172 21.0997 384.107 21.178 383.689C21.1952 383.602 21.1924 383.512 21.1698 383.426C21.1471 383.34 21.1053 383.26 21.0474 383.193C20.0799 382.46 18.9158 382.032 17.7041 381.965V381.991Z" fill="#000080"/>
<path d="M17.8476 381.965C17.6132 381.989 17.3769 381.989 17.1424 381.965C17.1011 381.962 17.0617 381.946 17.0292 381.921C16.9966 381.895 16.9724 381.861 16.9596 381.821C16.9412 381.785 16.9316 381.745 16.9316 381.704C16.9316 381.663 16.9412 381.623 16.9596 381.586C17.051 381.508 18.9708 379.51 20.4205 379.51C20.5939 379.506 20.7663 379.539 20.9261 379.606C21.0859 379.674 21.2296 379.774 21.3477 379.901C21.4777 380.01 21.5667 380.16 21.6 380.326C21.6332 380.493 21.6087 380.665 21.5306 380.816C21.1518 381.547 19.1536 381.965 17.8476 381.965ZM17.6779 381.508C18.9839 381.508 20.8776 381.103 21.191 380.528C21.191 380.528 21.2824 380.359 21.0735 380.15C20.9975 380.067 20.9043 380.002 20.8005 379.959C20.6968 379.916 20.5849 379.897 20.4727 379.901C19.4021 380.147 18.4291 380.706 17.6779 381.508Z" fill="#000080"/>
<path d="M106.917 414.249C105.927 414.242 104.94 414.151 103.966 413.975C103.917 413.966 103.874 413.94 103.843 413.901C103.812 413.863 103.795 413.815 103.796 413.766C103.789 413.721 103.795 413.675 103.813 413.633C103.832 413.591 103.862 413.556 103.9 413.531C104.044 413.453 107.387 411.533 108.994 411.977C109.143 412.01 109.283 412.074 109.407 412.164C109.53 412.254 109.634 412.368 109.712 412.499C109.814 412.644 109.869 412.818 109.869 412.995C109.869 413.173 109.814 413.346 109.712 413.492C109.333 414.079 108.145 414.249 106.917 414.249ZM104.71 413.635C106.486 413.897 108.916 413.884 109.36 413.257C109.425 413.178 109.477 413.035 109.36 412.76C109.26 412.598 109.1 412.481 108.916 412.434C107.897 412.173 105.873 413.035 104.71 413.635Z" fill="#000080"/>
<path d="M104.018 413.988C103.975 414 103.93 414 103.888 413.988C103.851 413.965 103.823 413.931 103.807 413.891C103.79 413.852 103.787 413.808 103.796 413.766C103.885 412.407 104.406 411.111 105.285 410.07C105.463 409.917 105.671 409.804 105.897 409.738C106.122 409.673 106.359 409.657 106.591 409.691C107.218 409.691 107.401 410.07 107.44 410.318C107.61 411.402 105.324 413.479 104.162 414.001L104.018 413.988ZM106.356 410.07C106.069 410.068 105.79 410.17 105.572 410.357C104.834 411.182 104.376 412.22 104.266 413.322C105.442 412.604 107.009 410.984 106.878 410.331C106.878 410.331 106.878 410.109 106.434 410.07H106.356Z" fill="#000080"/>
<path d="M93.4658 413.753H103.065L104.018 391.538H94.4192L93.4658 413.753Z" fill="#E4897B"/>
<path d="M7.98828 375.618L16.0071 380.868L33.7164 365.914L25.6845 360.651L7.98828 375.618Z" fill="#E4897B"/>
<path d="M17.3256 380.372L8.99332 373.541C8.84611 373.42 8.66147 373.354 8.47092 373.354C8.28037 373.354 8.09573 373.42 7.94852 373.541L1.07896 378.935C0.91299 379.067 0.778962 379.235 0.686839 379.426C0.594717 379.617 0.546875 379.826 0.546875 380.039C0.546875 380.251 0.594717 380.46 0.686839 380.651C0.778962 380.842 0.91299 381.01 1.07896 381.142C4.03052 383.48 5.58466 384.472 9.25452 387.476C11.5139 389.318 17.0906 394.96 20.238 397.506C23.3855 400.053 26.2717 397.31 25.2269 395.991C20.5384 390.049 18.6969 384.969 18.1615 381.821C18.0689 381.252 17.7717 380.737 17.3256 380.372Z" fill="#263238"/>
<path d="M102.999 412.643H92.5509C92.3604 412.644 92.1757 412.708 92.0264 412.827C91.8772 412.945 91.7721 413.11 91.7282 413.296L89.8345 421.824C89.7869 422.031 89.7869 422.245 89.8347 422.452C89.8824 422.659 89.9765 422.852 90.1099 423.017C90.2433 423.182 90.4125 423.314 90.6046 423.404C90.7967 423.493 91.0068 423.538 91.2188 423.535C94.9932 423.47 100.453 423.248 105.207 423.248C110.757 423.248 115.563 423.548 122.067 423.548C125.985 423.548 127.108 419.565 125.45 419.212C117.953 417.567 111.815 417.397 105.337 413.387C104.642 412.927 103.833 412.669 102.999 412.643Z" fill="#263238"/>
<path d="M45.8881 117.304C37.5689 121.222 32.8281 147.473 32.8281 147.473L53.1625 155.583C56.139 148.315 58.545 140.826 60.3586 133.185C63.1534 121.091 54.4032 113.255 45.8881 117.304Z" fill="#263238"/>
<path d="M56.675 132.101C51.6469 137.194 49.3484 147.172 48.3428 153.663L53.2141 155.609C56.106 148.547 58.4634 141.279 60.2665 133.864C59.8356 131.095 58.7646 129.985 56.675 132.101Z" fill="#203048"/>
<path d="M101.367 117.121C101.367 117.121 111.58 128.666 101.942 200.052H50.6288C50.2762 192.216 55.2259 153.754 47.625 116.638C53.2957 115.538 59.0328 114.814 64.7989 114.47C72.0626 114.039 79.3454 114.039 86.6091 114.47C91.5895 114.971 96.5235 115.858 101.367 117.121Z" fill="#263238"/>
<path d="M106.055 144.834L97.4092 129.933C95.7402 136.886 95.0588 144.039 95.3849 151.182C95.62 156.301 100.309 175.264 104.527 178.033C105.647 167.003 106.157 155.92 106.055 144.834Z" fill="#203048"/>
<path d="M107.257 127.321C108.563 133.668 109.869 140.172 111.266 146.545C112.664 152.919 114.113 159.318 115.798 165.495C116.229 167.023 116.634 168.591 117.104 170.053L117.457 171.176L117.627 171.738V171.673C117.535 171.555 117.431 171.542 117.509 171.673C118.046 172.259 118.732 172.688 119.494 172.913C120.729 173.373 122 173.727 123.295 173.971C129.469 174.95 135.721 175.357 141.97 175.186L143.211 182.291C141.461 182.852 139.829 183.257 138.105 183.662C136.381 184.067 134.683 184.406 132.946 184.667C129.352 185.266 125.708 185.511 122.067 185.399C120.043 185.344 118.03 185.082 116.059 184.615C113.554 184.067 111.2 182.975 109.164 181.416C107.834 180.342 106.736 179.009 105.938 177.498C105.729 177.106 105.546 176.662 105.376 176.283L105.141 175.669L104.658 174.363C103.992 172.705 103.443 171.072 102.843 169.44C100.635 162.91 98.7937 156.314 97.1743 149.732C95.5548 143.15 94.1574 136.581 92.9951 129.829L107.257 127.321Z" fill="#E4897B"/>
<path d="M88.555 124.121C85.8516 132.885 96.8089 159.018 96.8089 159.018L118.632 153.532C118.632 153.532 117.796 139.95 112.82 129.176C105.324 112.929 91.7939 113.608 88.555 124.121Z" fill="#263238"/>
<path d="M141.788 175.186L152.654 174.912L147.43 186.222C147.43 186.222 143.002 186.809 139.372 180.841L135.545 176.27L139.946 175.395C140.552 175.267 141.169 175.197 141.788 175.186Z" fill="#E4897B"/>
<path d="M159.51 177.014L153.294 186.391L147.43 186.222L152.654 174.912L159.51 177.014Z" fill="#E4897B"/>
<path d="M104.018 391.538L103.522 402.992H93.9229L94.4191 391.538H104.018Z" fill="#CE6F64"/>
<path d="M25.6836 360.651L33.7155 365.914L24.5735 373.62L16.5547 368.369L25.6836 360.651Z" fill="#CE6F64"/>
<path d="M67.5671 82.4079C68.1417 91.9025 67.998 97.5052 72.7911 102.376C80.0002 109.729 91.7411 105.38 94.0136 95.8466C96.064 87.3054 94.7841 73.2006 85.4854 69.4132C83.4336 68.585 81.2051 68.2917 79.0089 68.5608C76.8128 68.8298 74.7209 69.6525 72.9298 70.9514C71.1386 72.2504 69.7069 73.9832 68.7689 75.9871C67.8308 77.991 67.4173 80.2004 67.5671 82.4079Z" fill="#E4897B"/>
<path d="M56.3883 80.7358C58.7521 89.3946 64.3157 99.3724 71.5118 100.013C80.4448 100.796 84.4803 91.5625 85.6557 82.0287C91.0103 78.3589 88.2024 74.3233 93.5701 73.814C100.466 73.161 98.2586 60.545 89.1819 58.5207C89.1819 58.5207 92.2249 64.2018 85.8386 61.3286C79.7651 58.4422 73.0176 57.2725 66.3269 57.9461C66.3269 57.9461 74.4764 62.0208 66.5098 63.8361C58.5432 65.6515 56.1663 70.562 59.8361 73.5267C59.8361 73.5397 54.8341 75.0416 56.3883 80.7358Z" fill="#263238"/>
<path d="M80.2091 83.9878C80.3846 86.3479 81.335 88.5839 82.9126 90.3481C85.0022 92.6597 87.1832 91.2231 87.5489 88.4152C87.8884 85.8946 87.1962 81.6501 84.6365 80.3702C82.0767 79.0903 80.0394 81.1408 80.2091 83.9878Z" fill="#E4897B"/>
<path d="M83.7356 200.052C83.7356 200.052 93.0866 267.768 85.7207 294.907C74.0451 337.874 29.406 374.142 29.406 374.142L14.2695 364.216C14.2695 364.216 52.2871 333.591 56.9365 297.61C61.1157 265.313 50.6285 226.251 50.6285 200.039L83.7356 200.052Z" fill="#000080"/>
<path opacity="0.1" d="M83.7356 200.052C83.7356 200.052 93.0866 267.768 85.7207 294.907C74.0451 337.874 29.406 374.142 29.406 374.142L14.2695 364.216C14.2695 364.216 52.2871 333.591 56.9365 297.61C61.1157 265.313 50.6285 226.251 50.6285 200.039L83.7356 200.052Z" fill="black"/>
<path d="M87.6017 238.762C85.1123 235.91 82.3718 233.288 79.4131 230.926C81.0064 252.906 82.3124 285.465 80.8627 308.594C82.8119 304.16 84.4356 299.59 85.7211 294.92C89.3126 281.664 88.9338 258.77 87.6017 238.762Z" fill="#000080"/>
<path opacity="0.3" d="M87.6017 238.762C85.1123 235.91 82.3718 233.288 79.4131 230.926C81.0064 252.906 82.3124 285.465 80.8627 308.594C82.8119 304.16 84.4356 299.59 85.7211 294.92C89.3126 281.664 88.9338 258.77 87.6017 238.762Z" fill="black"/>
<path d="M35.5053 370.759C35.5706 370.759 29.6414 374.677 29.6414 374.677L13.1074 363.838L18.3314 359.515L35.5053 370.759Z" fill="#000080"/>
<path opacity="0.3" d="M35.5053 370.759C35.5706 370.759 29.6414 374.677 29.6414 374.677L13.1074 363.838L18.3314 359.515L35.5053 370.759Z" fill="black"/>
<path d="M101.942 200.052C101.942 200.052 116.386 261.304 117.405 290.571C118.554 323.378 107.1 400.771 107.1 400.771H90.84C90.84 400.771 88.8418 322.777 88.1235 292.896C87.3269 260.311 68.207 200.052 68.207 200.052H101.942Z" fill="#000080"/>
<path opacity="0.1" d="M101.942 200.052C101.942 200.052 116.386 261.304 117.405 290.571C118.554 323.378 107.1 400.771 107.1 400.771H90.84C90.84 400.771 88.8418 322.777 88.1235 292.896C87.3269 260.311 68.207 200.052 68.207 200.052H101.942Z" fill="black"/>
<path d="M110.222 394.307C110.3 394.307 109.307 401.046 109.307 401.046H89.5345L88.999 395.025L110.222 394.307Z" fill="#000080"/>
<path opacity="0.3" d="M110.222 394.307C110.3 394.307 109.307 401.046 109.307 401.046H89.5345L88.999 395.025L110.222 394.307Z" fill="black"/>
<path d="M351.936 141.191C353.046 142.236 353.921 143.124 354.835 144.116C355.749 145.109 356.611 146.075 357.447 147.081C359.145 149.079 360.738 151.182 362.279 153.297C365.357 157.541 368.095 162.022 370.468 166.697L370.951 167.65C371.187 168.112 371.384 168.592 371.539 169.087C371.854 170.043 372.048 171.034 372.114 172.038C372.199 173.809 371.955 175.58 371.395 177.262C370.441 180.056 369.024 182.67 367.203 184.994C363.921 189.209 360.051 192.93 355.71 196.043L352.458 192.308C353.986 190.518 355.58 188.599 357.003 186.679C358.452 184.819 359.761 182.854 360.921 180.802C362.005 179.011 362.807 177.064 363.298 175.029C363.467 174.301 363.498 173.548 363.39 172.809C363.343 172.56 363.264 172.319 363.154 172.091C363.106 171.991 363.049 171.894 362.985 171.803L362.567 171.098C360.048 166.991 357.315 163.02 354.378 159.2C352.929 157.281 351.374 155.439 349.807 153.624C349.037 152.71 348.24 151.822 347.443 150.934C346.647 150.045 345.785 149.157 345.093 148.465L351.936 141.191Z" fill="#E4897B"/>
<path d="M353.712 191.211L343.956 189.617L349.063 198.158C349.063 198.158 355.345 197.936 357.134 194.24L353.712 191.211Z" fill="#E4897B"/>
<path d="M336.747 193.561L341.397 200.496L349.063 198.158L343.956 189.617L336.747 193.561Z" fill="#E4897B"/>
<path d="M353.242 414.132C352.579 414.189 351.917 414.008 351.374 413.622C351.211 413.468 351.09 413.273 351.024 413.058C350.957 412.843 350.948 412.615 350.996 412.395C351.005 412.255 351.053 412.12 351.133 412.004C351.214 411.889 351.324 411.799 351.453 411.742C352.589 411.232 355.567 413.139 355.906 413.361C355.945 413.385 355.975 413.421 355.991 413.463C356.008 413.506 356.01 413.552 355.998 413.596C355.993 413.641 355.974 413.683 355.943 413.716C355.912 413.749 355.872 413.771 355.828 413.779C354.982 413.994 354.114 414.112 353.242 414.132ZM351.936 412.107C351.841 412.093 351.744 412.093 351.649 412.107C351.591 412.134 351.542 412.176 351.508 412.23C351.473 412.283 351.454 412.344 351.453 412.408C351.418 412.554 351.422 412.706 351.463 412.85C351.504 412.994 351.581 413.125 351.688 413.231C352.184 413.675 353.464 413.74 355.175 413.4C354.195 412.753 353.093 412.313 351.936 412.107Z" fill="#000080"/>
<path d="M355.854 413.766H355.737C354.809 413.231 353.02 411.154 353.242 410.018C353.284 409.839 353.383 409.678 353.525 409.56C353.666 409.443 353.842 409.374 354.026 409.365C354.202 409.339 354.382 409.354 354.552 409.409C354.721 409.463 354.876 409.555 355.005 409.678C356.076 410.619 356.089 413.44 356.089 413.596C356.087 413.636 356.075 413.674 356.054 413.708C356.034 413.743 356.005 413.771 355.972 413.792L355.854 413.766ZM354.182 409.848H354.078C353.791 409.848 353.725 410.005 353.699 410.122C353.569 410.788 354.679 412.382 355.606 413.126C355.629 412.031 355.314 410.955 354.705 410.044C354.627 409.971 354.534 409.916 354.432 409.882C354.331 409.848 354.223 409.837 354.117 409.848H354.182Z" fill="#000080"/>
<path d="M308.733 414.132C307.9 414.211 307.064 413.999 306.37 413.531C306.213 413.392 306.092 413.217 306.017 413.022C305.942 412.826 305.915 412.616 305.939 412.408C305.947 412.281 305.987 412.158 306.056 412.051C306.124 411.943 306.219 411.855 306.33 411.794C307.545 411.115 311.437 413.1 311.881 413.348C311.922 413.374 311.954 413.412 311.975 413.455C311.996 413.499 312.004 413.548 311.998 413.596C311.991 413.642 311.969 413.684 311.936 413.717C311.904 413.75 311.861 413.772 311.816 413.779C310.802 413.994 309.77 414.112 308.733 414.132ZM306.996 412.107C306.847 412.097 306.698 412.129 306.566 412.199C306.519 412.221 306.479 412.256 306.451 412.3C306.423 412.344 306.409 412.395 306.409 412.447C306.389 412.583 306.402 412.722 306.448 412.851C306.493 412.981 306.569 413.098 306.67 413.191C307.271 413.727 308.877 413.818 311.045 413.453C309.781 412.779 308.412 412.324 306.996 412.107Z" fill="#000080"/>
<path d="M311.775 413.766H311.671C310.509 413.244 308.197 411.154 308.38 410.018C308.38 409.757 308.615 409.43 309.255 409.365C309.489 409.34 309.725 409.363 309.95 409.432C310.174 409.502 310.382 409.617 310.561 409.77C311.789 410.788 312.024 413.426 312.024 413.544C312.029 413.584 312.023 413.624 312.007 413.661C311.991 413.698 311.965 413.73 311.932 413.753C311.883 413.774 311.828 413.779 311.775 413.766ZM309.438 409.848H309.294C308.876 409.848 308.85 410.057 308.837 410.109C308.732 410.775 310.3 412.434 311.449 413.152C311.336 412.036 310.879 410.982 310.143 410.135C309.945 409.966 309.698 409.866 309.438 409.848Z" fill="#000080"/>
<path d="M327.213 111.166C326.835 117.069 325.816 129.058 330.348 132.375C330.348 132.375 329.525 138.422 318.829 139.832C307.075 141.361 312.443 134.726 312.443 134.726C318.672 132.349 317.876 127.608 316.178 123.272L327.213 111.166Z" fill="#E4897B"/>
<path d="M302.883 100.731C302.818 100.731 302.754 100.717 302.695 100.69C302.637 100.663 302.585 100.623 302.543 100.574C302.17 100.131 301.697 99.7819 301.164 99.555C300.631 99.3282 300.052 99.2298 299.474 99.2679C299.413 99.2791 299.35 99.2777 299.29 99.2638C299.229 99.2499 299.172 99.2238 299.122 99.1871C299.072 99.1505 299.03 99.104 298.998 99.0505C298.967 98.997 298.946 98.9377 298.938 98.8761C298.924 98.7533 298.958 98.6296 299.034 98.5318C299.109 98.434 299.221 98.37 299.343 98.3537C300.081 98.2914 300.822 98.4085 301.504 98.6951C302.187 98.9816 302.79 99.4291 303.261 99.9993C303.318 100.068 303.354 100.15 303.366 100.238C303.377 100.326 303.364 100.415 303.327 100.496C303.29 100.576 303.232 100.645 303.157 100.693C303.083 100.742 302.997 100.768 302.909 100.77L302.883 100.731Z" fill="#263238"/>
<path d="M300.845 106.516C300.382 108.39 299.666 110.191 298.717 111.871C299.153 112.106 299.635 112.241 300.129 112.268C300.623 112.296 301.118 112.213 301.577 112.028L300.845 106.516Z" fill="#DE5753"/>
<path d="M301.367 105.08C301.471 105.863 301.145 106.543 300.635 106.621C300.126 106.699 299.617 106.099 299.525 105.315C299.434 104.531 299.747 103.852 300.257 103.787C300.766 103.722 301.275 104.244 301.367 105.08Z" fill="#263238"/>
<path d="M300.493 103.8L298.547 103.5C298.547 103.5 299.696 104.845 300.493 103.8Z" fill="#263238"/>
<path d="M322.538 413.557H312.743L312.09 390.898H321.885L322.538 413.557Z" fill="#E4897B"/>
<path d="M367.006 413.557H357.211L354.064 390.898H363.859L367.006 413.557Z" fill="#E4897B"/>
<path d="M356.61 412.46H367.607C367.795 412.458 367.976 412.525 368.118 412.648C368.26 412.77 368.352 412.94 368.378 413.126L369.684 421.837C369.708 422.057 369.685 422.279 369.617 422.489C369.549 422.699 369.437 422.893 369.289 423.057C369.141 423.221 368.96 423.352 368.758 423.441C368.556 423.53 368.337 423.575 368.116 423.574C364.29 423.509 362.435 423.287 357.603 423.287C354.625 423.287 350.276 423.587 346.176 423.587C342.075 423.587 341.853 419.525 343.564 419.16C351.23 417.514 352.444 415.242 355.017 413.061C355.466 412.688 356.027 412.477 356.61 412.46Z" fill="#263238"/>
<path d="M312.416 412.46H323.4C323.589 412.458 323.772 412.524 323.916 412.646C324.06 412.769 324.155 412.939 324.183 413.126L325.489 421.837C325.513 422.057 325.491 422.279 325.423 422.489C325.355 422.699 325.243 422.893 325.095 423.057C324.947 423.221 324.766 423.352 324.564 423.441C324.362 423.53 324.143 423.575 323.922 423.574C320.096 423.509 318.241 423.287 313.409 423.287C310.431 423.287 304.267 423.587 300.166 423.587C296.065 423.587 295.843 419.525 297.554 419.16C305.22 417.514 308.237 415.242 310.823 413.061C311.272 412.688 311.833 412.477 312.416 412.46Z" fill="#263238"/>
<path d="M312.09 390.898L312.429 402.587H322.224L321.885 390.898H312.09Z" fill="#CE6F64"/>
<path d="M363.859 390.898H354.064L355.696 402.587H365.478L363.859 390.898Z" fill="#CE6F64"/>
<path d="M327.344 98.9419C328.01 108.632 328.493 112.72 324.288 118.297C317.954 126.668 305.912 125.375 302.36 116.076C299.16 107.705 298.612 93.2738 307.519 88.2065C309.478 87.0836 311.692 86.4798 313.95 86.4526C316.209 86.4254 318.436 86.9756 320.422 88.0509C322.408 89.1263 324.086 90.6913 325.298 92.5973C326.509 94.5033 327.213 96.6872 327.344 98.9419Z" fill="#E4897B"/>
<path d="M332.985 107.94C338.418 110.97 342.453 103.5 342.453 103.5C342.453 103.5 332.711 104.557 333.586 98.759C334.735 91.0667 329.224 81.7157 315.406 82.9172C314.636 82.9825 313.904 83.0739 313.186 83.1915C311.739 82.5058 310.104 82.3288 308.544 82.6891C306.984 83.0494 305.592 83.9259 304.592 85.1766C300.674 85.5031 295.385 90.1786 298.977 96.356C299.229 95.6462 299.619 94.9936 300.126 94.4361C300.426 98.0538 303.587 103.8 307.531 104.179C308.38 109.128 305.089 114.862 306.225 120.034C307.91 127.491 320.487 129.176 320.487 129.176C320.053 128.244 319.891 127.209 320.021 126.19C320.15 125.171 320.565 124.209 321.218 123.416C329.759 127.334 335.388 123.508 335.388 123.508C329.563 121.34 331.326 117.474 331.326 117.474C333.337 118.367 335.616 118.445 337.684 117.693C339.752 116.94 341.448 115.415 342.414 113.438C340.479 113.53 338.559 113.06 336.886 112.084C335.213 111.108 333.858 109.669 332.985 107.94Z" fill="#263238"/>
<path d="M310.941 105.668C310.964 106.598 310.802 107.523 310.466 108.39C310.13 109.258 309.625 110.05 308.982 110.722C307.258 112.511 305.142 111.257 304.567 108.972C304.058 106.908 304.345 103.5 306.592 102.559C307.086 102.365 307.621 102.297 308.148 102.363C308.675 102.428 309.178 102.624 309.61 102.933C310.042 103.241 310.39 103.653 310.623 104.131C310.855 104.609 310.964 105.137 310.941 105.668Z" fill="#E4897B"/>
<path d="M319.077 195.951C319.077 195.951 321.559 260.415 327.462 298.263C332.216 328.85 353.334 400.314 353.334 400.314H366.681C366.681 400.314 355.671 331.292 353.255 301.058C347.143 224.54 363.011 208.11 348.031 192.177L319.077 195.951Z" fill="#263238"/>
<path d="M330.23 216.338C330.23 216.338 324.197 215.293 320.67 226.786C321.976 248.557 324.21 277.446 327.462 298.263C328.18 302.9 329.277 308.489 330.622 314.614C328.075 277.838 330.23 216.338 330.23 216.338Z" fill="#161F33"/>
<path d="M308.668 197.31C308.668 197.31 297.672 268.63 298.312 298.472C298.978 329.516 310.353 400.34 310.353 400.34H323.583C323.583 400.34 321.493 331.357 322.655 300.875C323.961 267.638 337.531 193.561 337.531 193.561L308.668 197.31Z" fill="#263238"/>
<path d="M368.613 400.941H350.864L349.48 394.986L368.482 395.116L368.613 400.941Z" fill="#000080"/>
<path opacity="0.2" d="M368.613 400.941H350.864L349.48 394.986L368.482 395.116L368.613 400.941Z" fill="black"/>
<path d="M347.365 132.388C352.471 132.885 360.229 147.394 360.229 147.394L347.339 157.281C347.339 157.281 336.669 147.917 337.936 142.653C339.255 137.181 342.467 131.931 347.365 132.388Z" fill="#000080"/>
<path opacity="0.1" d="M347.365 132.388C352.471 132.885 360.229 147.394 360.229 147.394L347.339 157.281C347.339 157.281 336.669 147.917 337.936 142.653C339.255 137.181 342.467 131.931 347.365 132.388Z" fill="black"/>
<path d="M343.512 138.631C342.211 138.28 340.863 138.13 339.516 138.187C338.83 139.615 338.301 141.112 337.936 142.653C336.63 147.877 347.339 157.281 347.339 157.281L348.292 156.549L343.512 138.631Z" fill="#000080"/>
<path opacity="0.3" d="M343.512 138.631C342.211 138.28 340.863 138.13 339.516 138.187C338.83 139.615 338.301 141.112 337.936 142.653C336.63 147.877 347.339 157.281 347.339 157.281L348.292 156.549L343.512 138.631Z" fill="black"/>
<path d="M304.292 152.566C300.57 161.982 296.652 171.555 293.531 180.998C293.322 181.598 293.152 182.173 292.969 182.761L292.525 184.21C292.404 184.637 292.404 185.089 292.525 185.516C293.262 187.149 294.432 188.549 295.908 189.565C299.812 192.367 304.067 194.645 308.563 196.343L307.387 201.149C301.857 200.42 296.508 198.675 291.611 196.004C288.597 194.394 286.143 191.907 284.572 188.873C283.669 186.933 283.356 184.772 283.67 182.656C283.7 182.397 283.744 182.14 283.801 181.886L283.932 181.337L284.154 180.345C284.31 179.679 284.467 179.039 284.637 178.386C285.943 173.162 287.615 168.199 289.378 163.275C291.141 158.352 292.982 153.493 295.059 148.648L304.292 152.566Z" fill="#E4897B"/>
<path d="M296.365 139.349C296.365 139.349 291.95 141.583 308.667 197.31L348.082 192.164C345.313 176.205 344.007 166.318 347.364 132.388C341.712 131.984 336.038 131.984 330.386 132.388C324.369 132.738 318.384 133.524 312.481 134.739C304.919 136.424 296.365 139.349 296.365 139.349Z" fill="#000080"/>
<path opacity="0.1" d="M296.365 139.349C296.365 139.349 291.95 141.583 308.667 197.31L348.082 192.164C345.313 176.205 344.007 166.318 347.364 132.388C341.712 131.984 336.038 131.984 330.386 132.388C324.369 132.738 318.384 133.524 312.481 134.739C304.919 136.424 296.365 139.349 296.365 139.349Z" fill="black"/>
<path d="M348.371 189.774L350.63 193.052C350.8 193.313 350.512 193.627 350.068 193.692L308.733 199.099C308.381 199.099 308.054 199.007 308.002 198.785L307.192 195.298C307.127 195.063 307.414 194.815 307.806 194.763L347.718 189.539C347.837 189.52 347.96 189.531 348.074 189.572C348.189 189.613 348.29 189.683 348.371 189.774Z" fill="#000080"/>
<path opacity="0.2" d="M348.371 189.774L350.63 193.052C350.8 193.313 350.512 193.627 350.068 193.692L308.733 199.099C308.381 199.099 308.054 199.007 308.002 198.785L307.192 195.298C307.127 195.063 307.414 194.815 307.806 194.763L347.718 189.539C347.837 189.52 347.96 189.531 348.074 189.572C348.189 189.613 348.29 189.683 348.371 189.774Z" fill="black"/>
<path d="M343.591 194.933L344.662 194.789C344.871 194.789 345.014 194.632 344.988 194.502L343.891 189.983C343.85 189.906 343.783 189.845 343.702 189.812C343.621 189.779 343.531 189.775 343.447 189.8L342.376 189.931C342.154 189.931 342.01 190.087 342.05 190.231L343.147 194.737C343.173 194.88 343.382 194.959 343.591 194.933Z" fill="#263238"/>
<path d="M317.68 198.276L318.751 198.132C318.96 198.132 319.116 197.976 319.077 197.845L317.98 193.326C317.937 193.25 317.871 193.19 317.791 193.154C317.711 193.119 317.621 193.111 317.536 193.13L316.465 193.274C316.256 193.274 316.099 193.431 316.139 193.561L317.236 198.08C317.262 198.276 317.471 198.354 317.68 198.276Z" fill="#263238"/>
<path d="M298.207 158.26C299.291 163.301 300.819 169.688 303.052 177.772L303.536 157.281L298.207 158.26Z" fill="#000080"/>
<path opacity="0.3" d="M298.207 158.26C299.291 163.301 300.819 169.688 303.052 177.772L303.536 157.281L298.207 158.26Z" fill="black"/>
<path d="M296.366 139.349C291.468 141.321 287.224 158.077 287.224 158.077L304.071 166.279C304.071 166.279 312.207 145.788 308.564 141.792C304.92 137.795 302.008 137.09 296.366 139.349Z" fill="#000080"/>
<path opacity="0.1" d="M296.366 139.349C291.468 141.321 287.224 158.077 287.224 158.077L304.071 166.279C304.071 166.279 312.207 145.788 308.564 141.792C304.92 137.795 302.008 137.09 296.366 139.349Z" fill="black"/>
<path d="M325.842 400.941H308.094L306.709 394.986L326.469 395.116L325.842 400.941Z" fill="#000080"/>
<path opacity="0.2" d="M325.842 400.941H308.094L306.709 394.986L326.469 395.116L325.842 400.941Z" fill="black"/>
<path d="M308.838 194.724L307.414 194.136C307.065 193.994 306.683 193.946 306.309 193.999C305.935 194.052 305.581 194.202 305.284 194.436C304.987 194.669 304.757 194.977 304.618 195.328C304.478 195.679 304.434 196.061 304.489 196.435L305.521 203.239C305.57 203.579 305.695 203.905 305.885 204.191C306.076 204.478 306.328 204.718 306.623 204.896C306.918 205.073 307.248 205.183 307.591 205.217C307.933 205.251 308.279 205.209 308.603 205.093C309.121 204.905 309.606 204.636 310.04 204.297C310.512 203.905 310.886 203.408 311.131 202.845C311.376 202.283 311.485 201.67 311.45 201.058L311.306 198.237C311.282 197.475 311.035 196.736 310.596 196.112C310.158 195.488 309.547 195.005 308.838 194.724Z" fill="#E4897B"/>
</g>
</g>
</g>
</g>
</g>
<defs>
<clipPath id="clip0_2018_2995">
<rect width="373" height="424" fill="white"/>
</clipPath>
</defs>
</svg>
