<svg width="500" height="372" viewBox="0 0 500 372" fill="none" xmlns="http://www.w3.org/2000/svg">
<g clip-path="url(#clip0_2047_2995)">
<path d="M449.9 343.49H416.78V343.74H449.9V343.49Z" fill="#EBEBEB"/>
<path d="M331.22 346.211H322.53V346.461H331.22V346.211Z" fill="#EBEBEB"/>
<path d="M415.78 334.211H396.59V334.461H415.78V334.211Z" fill="#EBEBEB"/>
<path d="M95.65 335.891H52.46V336.141H95.65V335.891Z" fill="#EBEBEB"/>
<path d="M110.89 335.891H104.56V336.141H110.89V335.891Z" fill="#EBEBEB"/>
<path d="M225.15 340.109H131.47V340.359H225.15V340.109Z" fill="#EBEBEB"/>
<path d="M238.4 282.8H45.2998C43.7855 282.8 42.3331 282.198 41.2623 281.128C40.1914 280.057 39.5898 278.604 39.5898 277.09V5.66C39.603 4.15429 40.2104 2.71475 41.2798 1.65471C42.3492 0.594662 43.7941 -5.77259e-05 45.2998 4.20255e-09H238.4C239.15 4.20255e-09 239.892 0.147692 240.585 0.434647C241.278 0.721601 241.907 1.1422 242.437 1.67242C242.968 2.20264 243.388 2.83211 243.675 3.52488C243.962 4.21765 244.11 4.96015 244.11 5.71V277.09C244.11 277.84 243.962 278.582 243.675 279.275C243.388 279.968 242.968 280.597 242.437 281.128C241.907 281.658 241.278 282.078 240.585 282.365C239.892 282.652 239.15 282.8 238.4 282.8ZM45.2998 0.200001C43.8526 0.202644 42.4653 0.77874 41.442 1.80212C40.4186 2.82549 39.8425 4.21273 39.8398 5.66V277.09C39.8425 278.537 40.4186 279.924 41.442 280.948C42.4653 281.971 43.8526 282.547 45.2998 282.55H238.4C239.847 282.547 241.234 281.971 242.258 280.948C243.281 279.924 243.857 278.537 243.86 277.09V5.66C243.857 4.21273 243.281 2.82549 242.258 1.80212C241.234 0.77874 239.847 0.202644 238.4 0.200001H45.2998Z" fill="#EBEBEB"/>
<path d="M454.7 282.8H261.6C260.086 282.8 258.633 282.198 257.563 281.128C256.492 280.057 255.89 278.604 255.89 277.09V5.66C255.903 4.15429 256.511 2.71475 257.58 1.65471C258.65 0.594662 260.094 -5.77259e-05 261.6 4.20255e-09H454.7C456.215 4.20256e-09 457.667 0.601588 458.738 1.67242C459.809 2.74325 460.41 4.19561 460.41 5.71V277.09C460.41 278.604 459.809 280.057 458.738 281.128C457.667 282.198 456.215 282.8 454.7 282.8ZM261.6 0.200001C260.153 0.202644 258.766 0.77874 257.742 1.80212C256.719 2.82549 256.143 4.21273 256.14 5.66V277.09C256.143 278.537 256.719 279.924 257.742 280.948C258.766 281.971 260.153 282.547 261.6 282.55H454.7C456.147 282.547 457.535 281.971 458.558 280.948C459.581 279.924 460.157 278.537 460.16 277.09V5.66C460.157 4.21273 459.581 2.82549 458.558 1.80212C457.535 0.77874 456.147 0.202644 454.7 0.200001H261.6Z" fill="#EBEBEB"/>
<path d="M500 327.4H0V327.65H500V327.4Z" fill="#EBEBEB"/>
<path d="M350.07 321.59H445.25V194.94H350.07V321.59Z" fill="#F5F5F5"/>
<path d="M331.91 321.59H350.07V194.94H331.91V321.59Z" fill="#E6E6E6"/>
<path d="M356.25 235.1H438.58V204.34H356.25V235.1Z" fill="#FAFAFA"/>
<path d="M408.15 204.34L407.79 208.44C407.735 209.093 407.436 209.702 406.952 210.145C406.469 210.588 405.836 210.832 405.18 210.83H389.65C388.994 210.832 388.362 210.588 387.878 210.145C387.395 209.702 387.095 209.093 387.04 208.44L386.68 204.34H408.15Z" fill="#EBEBEB"/>
<path d="M356.25 269.211H438.58V238.451H356.25V269.211Z" fill="#FAFAFA"/>
<path d="M408.15 238.461L407.79 242.561C407.733 243.213 407.433 243.821 406.95 244.263C406.467 244.706 405.835 244.951 405.18 244.951H389.65C388.995 244.951 388.364 244.706 387.881 244.263C387.398 243.821 387.098 243.213 387.04 242.561L386.68 238.461H408.15Z" fill="#EBEBEB"/>
<path d="M356.25 303.33H438.58V272.57H356.25V303.33Z" fill="#FAFAFA"/>
<path d="M408.15 272.57L407.79 276.67C407.735 277.324 407.436 277.932 406.952 278.375C406.469 278.818 405.836 279.063 405.18 279.06H389.65C388.994 279.063 388.362 278.818 387.878 278.375C387.395 277.932 387.095 277.324 387.04 276.67L386.68 272.57H408.15Z" fill="#EBEBEB"/>
<path d="M356.25 327.92H437.58L438.58 321.58H356.25V327.92Z" fill="#E6E6E6"/>
<path d="M339.25 327.92H356.25V321.58H338.25L339.25 327.92Z" fill="#E0E0E0"/>
<path d="M394.48 195.079H426.98L423.38 153.869H390.88L394.48 195.079Z" fill="#FAFAFA"/>
<path d="M394.48 195.079H392.93L389.32 153.869H390.88L394.48 195.079Z" fill="#EBEBEB"/>
<path d="M397.43 190.88H423.3L420.43 158.07H394.56L397.43 190.88Z" fill="#F0F0F0"/>
<path d="M399.32 188.18H420.93L418.54 160.77H396.92L399.32 188.18Z" fill="#E6E6E6"/>
<path d="M385.35 195.08L387.58 169.57H355.23L353 195.08H385.35Z" fill="#F0F0F0"/>
<path d="M385.35 195.08L387.58 169.57H389.32L387.09 195.08H385.35Z" fill="#E0E0E0"/>
<path d="M382.28 192.48L384.06 172.17H358.3L356.52 192.48H382.28Z" fill="#EBEBEB"/>
<path d="M380.31 190.81L381.79 173.85H360.27L358.79 190.81H380.31Z" fill="#F5F5F5"/>
<path d="M310.64 310.77C310.64 317.53 309.58 321.9 307.8 324.71C307.115 325.739 306.184 326.58 305.09 327.157C303.997 327.733 302.776 328.026 301.54 328.01H291.75C290.514 328.026 289.294 327.733 288.2 327.157C287.107 326.58 286.175 325.739 285.49 324.71C283.71 321.9 282.64 317.53 282.64 310.77C282.64 300.96 286.92 293.11 288.32 286.85C288.82 284.59 287.14 277.67 287.14 277.67H306.14C306.14 277.67 304.47 284.59 304.97 286.85C306.37 293.11 310.64 301 310.64 310.77Z" fill="#EBEBEB"/>
<path d="M343 271.09C343 262.57 329.65 266.09 326.29 252.9C325.01 247.9 335.87 236.57 335.87 236.57H302C302 236.57 312.86 247.9 311.58 252.9C308.22 266.11 294.87 262.57 294.87 271.09C294.87 280.46 313.7 299.99 314.61 321.97C314.69 323.97 311.07 327.97 311.07 327.97H326.79C326.79 327.97 323.16 323.89 323.25 321.97C324.17 300 343 280.46 343 271.09Z" fill="#F5F5F5"/>
<path d="M332.77 293.21C334.77 289.07 330.67 275.01 330.67 275.01H345.34C345.34 275.01 341.27 289.07 343.24 293.21C344.63 296.13 347.78 298 347.78 301.45V322.22C347.78 327.6 343.38 328.01 338 328.01C332.62 328.01 328.22 327.6 328.22 322.22V301.45C328.22 298 331.38 296.13 332.77 293.21Z" fill="#F0F0F0"/>
<path d="M165.15 170.53C156.73 166.88 151.92 159.18 154.44 153.36C156.96 147.54 165.86 145.78 174.29 149.43C182.72 153.08 187.52 160.78 185 166.6C182.48 172.42 173.58 174.18 165.15 170.53ZM171.86 155C167.86 153.29 163.74 154.11 162.56 156.84C161.38 159.57 163.63 163.17 167.56 164.84C171.49 166.51 175.68 165.73 176.86 163C178.04 160.27 175.81 156.75 171.86 155Z" fill="#E6E6E6"/>
<path d="M175.07 155.36L171.07 153.63L195.27 97.6896C195.383 97.426 195.547 97.1874 195.753 96.9876C195.959 96.7879 196.202 96.631 196.469 96.5259C196.736 96.4208 197.021 96.3697 197.308 96.3754C197.595 96.3812 197.877 96.4438 198.14 96.5596C198.402 96.6727 198.64 96.8365 198.839 97.0416C199.037 97.2467 199.194 97.4891 199.299 97.7549C199.404 98.0206 199.455 98.3044 199.45 98.5901C199.445 98.8758 199.384 99.1576 199.27 99.4196L175.07 155.36Z" fill="#E6E6E6"/>
<path d="M201.12 104.831L193.43 101.471L195.17 97.4707L202.85 100.831L201.12 104.831Z" fill="#E6E6E6"/>
<path d="M197.33 109.31L191.83 106.92L193.56 102.91L199.06 105.3L197.33 109.31Z" fill="#E6E6E6"/>
<path d="M191.319 110.552L189.586 114.553L195.753 117.223L197.486 113.222L191.319 110.552Z" fill="#E6E6E6"/>
<path d="M176.62 149.39L174.42 148.44C173.894 148.21 173.481 147.781 173.271 147.247C173.062 146.713 173.072 146.117 173.3 145.59C173.528 145.063 173.957 144.648 174.491 144.436C175.025 144.224 175.622 144.233 176.15 144.46L178.35 145.41C178.876 145.641 179.288 146.07 179.498 146.604C179.708 147.138 179.698 147.734 179.47 148.26C179.241 148.788 178.813 149.203 178.279 149.415C177.744 149.627 177.148 149.618 176.62 149.39Z" fill="#E6E6E6"/>
<path d="M348.47 130.161C350.978 131.745 352.958 134.04 354.155 136.755C355.353 139.469 355.714 142.479 355.192 145.399C354.671 148.319 353.291 151.018 351.228 153.15C349.165 155.283 346.514 156.751 343.612 157.369C340.71 157.987 337.691 157.726 334.938 156.619C332.186 155.513 329.826 153.61 328.16 151.156C326.493 148.701 325.597 145.806 325.585 142.839C325.572 139.872 326.444 136.969 328.09 134.501C330.22 131.226 333.562 128.93 337.383 128.117C341.203 127.303 345.191 128.038 348.47 130.161ZM336.32 148.391C337.459 149.192 338.81 149.636 340.202 149.665C341.595 149.694 342.964 149.308 344.135 148.555C345.306 147.802 346.226 146.716 346.777 145.438C347.328 144.159 347.486 142.745 347.229 141.377C346.973 140.008 346.314 138.747 345.337 137.755C344.36 136.763 343.109 136.085 341.745 135.807C340.38 135.53 338.964 135.665 337.677 136.197C336.39 136.728 335.291 137.631 334.52 138.791C333.487 140.303 333.096 142.163 333.433 143.963C333.771 145.763 334.809 147.356 336.32 148.391Z" fill="#E6E6E6"/>
<path d="M334.71 146.609L338.85 149.369L309.23 194.689C308.864 195.238 308.295 195.619 307.648 195.748C307.001 195.877 306.329 195.745 305.78 195.379C305.509 195.199 305.276 194.967 305.094 194.696C304.913 194.426 304.786 194.122 304.722 193.802C304.658 193.483 304.658 193.154 304.721 192.834C304.784 192.515 304.909 192.211 305.09 191.939L334.71 146.609Z" fill="#E6E6E6"/>
<path d="M305.28 182.05L314 187.9L309.65 194.43L300.92 188.57C300.32 188.165 299.904 187.54 299.764 186.829C299.623 186.119 299.769 185.382 300.17 184.78L301.48 182.78C301.89 182.182 302.519 181.77 303.23 181.633C303.942 181.497 304.678 181.646 305.28 182.05Z" fill="#E6E6E6"/>
<path d="M227.54 43.5592L222.94 55.4592C222.842 55.7146 222.694 55.9481 222.505 56.1464C222.316 56.3447 222.09 56.5039 221.84 56.6148C221.59 56.7258 221.32 56.7864 221.047 56.7931C220.773 56.7999 220.501 56.7527 220.245 56.6542C219.99 56.5557 219.756 56.4078 219.558 56.2191C219.36 56.0304 219.2 55.8044 219.09 55.5542C218.979 55.3039 218.918 55.0342 218.911 54.7606C218.904 54.4869 218.952 54.2146 219.05 53.9592L223.65 42.0592C224.361 40.209 224.31 38.1524 223.508 36.3398C222.706 34.5273 221.218 33.1066 219.37 32.3892L215.11 30.7392C213.263 30.0268 211.208 30.075 209.396 30.8733C207.584 31.6716 206.162 33.155 205.44 34.9992L203.56 39.8592L199.68 38.3592L201.56 33.4992C202.11 32.073 202.936 30.7692 203.99 29.6621C205.044 28.5551 206.306 27.6665 207.704 27.0471C209.101 26.4277 210.607 26.0897 212.135 26.0523C213.663 26.0149 215.184 26.2789 216.61 26.8292L220.87 28.4692C222.299 29.0214 223.606 29.8499 224.715 30.9073C225.824 31.9647 226.713 33.2303 227.333 34.6317C227.952 36.0332 228.289 37.543 228.325 39.0748C228.361 40.6066 228.094 42.1305 227.54 43.5592Z" fill="#F0F0F0"/>
<path d="M226.81 45.43C226.493 45.0224 226.071 44.708 225.59 44.52L202.39 35.52C201.685 35.2547 200.905 35.2769 200.216 35.5818C199.528 35.8867 198.987 36.4499 198.71 37.15L189.71 60.36C189.44 61.0629 189.459 61.8443 189.765 62.5325C190.071 63.2207 190.637 63.7594 191.34 64.03L214.54 73.03C214.888 73.1654 215.26 73.2307 215.634 73.222C216.008 73.2133 216.377 73.1309 216.718 72.9795C217.06 72.828 217.369 72.6105 217.627 72.3395C217.884 72.0684 218.086 71.7492 218.22 71.4L227.22 48.2C227.398 47.7424 227.453 47.2464 227.382 46.7608C227.31 46.2751 227.113 45.8165 226.81 45.43ZM209.19 63.36L201.84 60.52L205.73 53.73C205.428 53.1221 205.283 52.4485 205.308 51.7703C205.332 51.0922 205.525 50.4308 205.87 49.8461C206.214 49.2614 206.699 48.7719 207.28 48.4218C207.862 48.0718 208.521 47.8723 209.199 47.8414C209.877 47.8105 210.552 47.9492 211.163 48.2449C211.774 48.5406 212.301 48.984 212.697 49.5349C213.094 50.0858 213.346 50.7269 213.432 51.4001C213.518 52.0732 213.435 52.7572 213.19 53.39C212.989 53.9188 212.679 54.3989 212.279 54.7988C211.879 55.1987 211.399 55.5093 210.87 55.71L209.19 63.36Z" fill="#E6E6E6"/>
<path d="M69.1498 314.461H254.28V214.831H69.1498V314.461Z" fill="#E6E6E6"/>
<path d="M239.44 327.391H251.08V318.601H239.44V327.391Z" fill="#E6E6E6"/>
<path d="M55.0202 327.391H66.6602V207.421H55.0202V327.391Z" fill="#E6E6E6"/>
<path d="M66.52 207.41V327.41H72.73V320.69H251.08V327.41H257.29V207.41H66.52ZM72.73 218.27H158.8V259.94H72.73V218.27ZM251.08 309.8H165V218.27H251.07L251.08 309.8ZM72.73 309.8V266.15H158.8V309.8H72.73Z" fill="#F0F0F0"/>
<path d="M165 309.811H245.26V222.761H165V309.811Z" fill="#F5F5F5"/>
<path d="M168.64 263.669C168.64 264.407 168.859 265.128 169.269 265.742C169.679 266.355 170.261 266.833 170.943 267.116C171.624 267.398 172.374 267.472 173.098 267.328C173.821 267.184 174.486 266.829 175.008 266.307C175.529 265.785 175.885 265.121 176.028 264.397C176.172 263.674 176.099 262.924 175.816 262.242C175.534 261.56 175.056 260.978 174.442 260.568C173.829 260.158 173.108 259.939 172.37 259.939C171.88 259.939 171.395 260.036 170.943 260.223C170.49 260.411 170.079 260.686 169.733 261.032C169.386 261.378 169.112 261.789 168.924 262.242C168.737 262.695 168.64 263.18 168.64 263.669Z" fill="#FAFAFA"/>
<path d="M172.37 267.401C173.083 267.398 173.78 267.192 174.379 266.805C174.978 266.419 175.454 265.869 175.75 265.221C175.979 265.706 176.098 266.235 176.1 266.771C176.1 267.76 175.707 268.709 175.008 269.408C174.308 270.108 173.359 270.501 172.37 270.501C171.381 270.501 170.432 270.108 169.733 269.408C169.033 268.709 168.64 267.76 168.64 266.771C168.642 266.235 168.762 265.706 168.99 265.221C169.286 265.869 169.762 266.419 170.361 266.805C170.96 267.192 171.657 267.398 172.37 267.401Z" fill="#E0E0E0"/>
<path d="M214.14 309.8H194.99L185.84 222.75H204.99L214.14 309.8Z" fill="#FAFAFA"/>
<path d="M190.09 309.8H186.28L177.13 222.75H180.94L190.09 309.8Z" fill="#FAFAFA"/>
<path d="M139.41 259.9H146.99V222.67H139.41V259.9Z" fill="#FAFAFA"/>
<path d="M107.96 259.9H115.54V222.67H107.96V259.9Z" fill="#F5F5F5"/>
<path d="M131.82 259.9H139.4V225.28H131.82V259.9Z" fill="#F5F5F5"/>
<path d="M115.54 259.9H123.12V225.28H115.54V259.9Z" fill="#FAFAFA"/>
<path d="M123.13 259.9H128.03V222.67H123.13V259.9Z" fill="#EBEBEB"/>
<path d="M128.02 259.9H131.81V225.28H128.02V259.9Z" fill="#FAFAFA"/>
<path d="M100.38 259.9H107.96V222.67H100.38V259.9Z" fill="#EBEBEB"/>
<path d="M92.7901 259.9H100.37V225.28H92.7901V259.9Z" fill="#E6E6E6"/>
<path d="M76.5098 259.9H84.0898V225.28H76.5098V259.9Z" fill="#E6E6E6"/>
<path d="M84.1 259.9H89V222.67H84.1V259.9Z" fill="#FAFAFA"/>
<path d="M89 259.9H92.79V225.28H89V259.9Z" fill="#EBEBEB"/>
<path d="M72.7198 259.9H76.5098V223.55H72.7198V259.9Z" fill="#EBEBEB"/>
<path d="M80.3002 272.57H72.7202V309.8H80.3002V272.57Z" fill="#EBEBEB"/>
<path d="M111.74 272.57H104.16V309.8H111.74V272.57Z" fill="#FAFAFA"/>
<path d="M87.8798 275.189H80.2998V309.809H87.8798V275.189Z" fill="#FAFAFA"/>
<path d="M104.16 275.189H96.5801V309.809H104.16V275.189Z" fill="#EBEBEB"/>
<path d="M96.5802 272.57H91.6802V309.8H96.5802V272.57Z" fill="#FAFAFA"/>
<path d="M91.6801 275.189H87.8901V309.809H91.6801V275.189Z" fill="#F5F5F5"/>
<path d="M119.33 272.57H111.75V309.8H119.33V272.57Z" fill="#EBEBEB"/>
<path d="M126.91 275.189H119.33V309.809H126.91V275.189Z" fill="#F5F5F5"/>
<path d="M143.19 275.189H135.61V309.809H143.19V275.189Z" fill="#E6E6E6"/>
<path d="M135.61 272.57H130.71V309.8H135.61V272.57Z" fill="#FAFAFA"/>
<path d="M151.89 272.57H146.99V309.8H151.89V272.57Z" fill="#FAFAFA"/>
<path d="M130.71 275.189H126.92V309.809H130.71V275.189Z" fill="#EBEBEB"/>
<path d="M146.98 273.449H143.19V309.799H146.98V273.449Z" fill="#EBEBEB"/>
<path d="M81.1802 143.289C80.3944 143.676 79.7455 144.293 79.3202 145.059C78.7402 146.239 80.5502 148.429 80.5502 148.429C80.9866 148.721 81.4852 148.906 82.0062 148.97C82.5272 149.035 83.056 148.976 83.5502 148.799L85.0502 148.119C85.0502 148.119 82.4802 143.649 81.2302 143.599L81.1802 143.289Z" fill="#E6E6E6"/>
<path d="M87.63 143.25C87.81 145.37 86.5 148.05 84.63 148.25C82.76 148.45 81 146 80.78 143.85C80.56 141.7 82.12 141.52 84.01 141.36C85.9 141.2 87.44 141.13 87.63 143.25Z" fill="#E6E6E6"/>
<path d="M82.0801 142.631C82.0801 142.631 83.5301 143.781 86.5101 143.111C86.5101 143.111 81.8101 146.241 82.0801 142.631Z" fill="#E6E6E6"/>
<path d="M83.3599 142.209C83.3599 142.209 85.0299 141.919 85.0499 142.609C85.0499 142.609 86.4699 142.529 86.2699 141.939C86.0699 141.349 83.3599 142.209 83.3599 142.209Z" fill="#E6E6E6"/>
<g opacity="0.2">
<path d="M82.0801 142.631C82.0801 142.631 83.5301 143.781 86.5101 143.111C86.5101 143.111 81.8101 146.241 82.0801 142.631Z" fill="#FAFAFA"/>
</g>
<g opacity="0.2">
<path d="M83.3599 142.209C83.3599 142.209 85.0299 141.919 85.0499 142.609C85.0499 142.609 86.4699 142.529 86.2699 141.939C86.0699 141.349 83.3599 142.209 83.3599 142.209Z" fill="#FAFAFA"/>
</g>
<path d="M81.4302 148.881C81.7528 149.365 82.2057 149.747 82.7366 149.984C83.2675 150.221 83.8546 150.304 84.4302 150.221C84.999 150.135 85.5436 149.932 86.0292 149.624C86.5148 149.315 86.9307 148.909 87.2502 148.431C87.8739 147.467 88.2199 146.349 88.2502 145.201C88.2502 144.911 88.2502 144.201 87.9002 144.051C87.5502 143.901 87.3202 144.451 87.1602 144.681C86.6933 145.352 86.1607 145.975 85.5702 146.541C84.9862 147.101 84.3384 147.591 83.6402 148.001C83.4402 148.061 81.5402 149.051 81.4302 148.881Z" fill="#E6E6E6"/>
<path d="M89.55 144.649C89.7228 145.083 89.7832 145.553 89.7255 146.016C89.6678 146.48 89.4939 146.921 89.22 147.299C88.8258 147.767 88.3476 148.157 87.81 148.449C87.44 148.669 86.97 148.879 86.61 148.649C86.25 148.419 86.26 147.829 86.35 147.379C86.49 146.689 86.64 145.999 86.82 145.309C86.9053 144.618 87.0941 143.944 87.38 143.309C87.69 142.869 88.12 143.129 88.59 143.459C89.0165 143.757 89.3494 144.169 89.55 144.649Z" fill="#E6E6E6"/>
<g opacity="0.2">
<path d="M81.9101 147.711C81.5463 147.682 81.1975 147.553 80.9013 147.34C80.6052 147.127 80.3731 146.837 80.2301 146.501C80.0301 145.991 80.0301 144.721 80.6901 144.551C80.8893 145.673 81.3035 146.746 81.9101 147.711Z" fill="#FAFAFA"/>
</g>
<g opacity="0.2">
<path d="M86.8398 147.65C87.1855 147.549 87.5013 147.365 87.7593 147.114C88.0173 146.863 88.2098 146.553 88.3198 146.21C88.4298 145.83 88.3198 143.89 87.7098 144.7C87.5198 144.97 87.5598 145.82 87.4598 146.17C87.3121 146.686 87.1039 147.182 86.8398 147.65Z" fill="#FAFAFA"/>
</g>
<g opacity="0.2">
<path d="M84.2 148.85C84.4788 149.082 84.8282 149.214 85.1913 149.223C85.5544 149.232 85.9098 149.118 86.2 148.9C86.12 149.28 84.94 149.59 84.58 149.7C83.58 149.98 83.12 149.56 82.2 149.17C82.15 149.17 83.61 149.39 84.2 148.85Z" fill="#FAFAFA"/>
</g>
<path d="M82.5498 187.8L82.6398 158.95L84.1198 150.18L84.6798 150.27L83.2098 159L83.0998 188.35L82.5498 187.8Z" fill="#E0E0E0"/>
<path d="M83.1498 158.799L82.6998 159.149C82.1913 158.438 81.7431 157.685 81.3598 156.899C80.6099 155.346 79.6657 153.895 78.5498 152.579L78.9698 152.189C80.1189 153.542 81.0932 155.034 81.8698 156.629C82.2364 157.387 82.6645 158.112 83.1498 158.799Z" fill="#E0E0E0"/>
<path d="M83.5 154.931C84.2738 154.721 84.9474 154.243 85.4 153.581C85.8485 152.796 86.1341 151.929 86.24 151.031C85.24 151.331 84.17 150.851 83.14 150.971C82.7287 151.022 82.3345 151.166 81.9878 151.393C81.641 151.62 81.351 151.924 81.14 152.281C80.6 153.211 80.38 154.281 80.86 154.691C81.6754 155.111 82.6223 155.197 83.5 154.931Z" fill="#E6E6E6"/>
<path d="M79.6598 152.94C79.1959 153.229 78.6749 153.413 78.1327 153.48C77.5905 153.548 77.0402 153.496 76.5198 153.33C75.5198 153 75.1898 151.44 74.7798 150.43C76.067 150.31 77.3626 150.31 78.6498 150.43C78.9217 150.447 79.1866 150.523 79.4252 150.655C79.6639 150.786 79.8704 150.969 80.0298 151.19C80.1797 151.417 80.2411 151.691 80.2024 151.96C80.1637 152.229 80.0275 152.475 79.8198 152.65L79.6598 152.94Z" fill="#E6E6E6"/>
<path d="M74.9301 154.63C75.3429 154.219 75.8405 153.903 76.388 153.705C76.9356 153.506 77.5199 153.429 78.1001 153.48C78.5646 153.566 79.0024 153.76 79.3777 154.046C79.7531 154.333 80.0554 154.704 80.2601 155.13C80.1044 155.426 79.8719 155.676 79.5869 155.852C79.302 156.028 78.975 156.124 78.6401 156.13C77.9583 156.14 77.2803 156.025 76.6401 155.79C76.0013 155.549 75.3229 155.43 74.6401 155.44L74.9301 154.63Z" fill="#E6E6E6"/>
<path d="M94.18 149.67C94.8136 150.269 95.2496 151.047 95.43 151.9C95.64 153.21 93.27 154.76 93.27 154.76C92.7637 154.916 92.2277 154.949 91.7061 154.857C91.1844 154.765 90.6922 154.55 90.27 154.23L89 153.13C89 153.13 92.78 149.62 94 149.95L94.18 149.67Z" fill="#E6E6E6"/>
<path d="M88 147.74C87.21 149.74 87.68 152.65 89.44 153.36C91.2 154.07 93.58 152.29 94.38 150.36C95.18 148.43 93.8 147.7 92 147C90.2 146.3 88.82 145.77 88 147.74Z" fill="#E6E6E6"/>
<path d="M93.5099 148.77C93.5099 148.77 91.7799 149.45 89.1299 147.93C89.1299 147.93 92.6999 152.3 93.5099 148.77Z" fill="#E6E6E6"/>
<path d="M92.4098 148C92.4098 148 90.8998 147.23 90.6698 147.89C90.6698 147.89 89.3398 147.4 89.6698 146.89C89.9998 146.38 92.4098 148 92.4098 148Z" fill="#E6E6E6"/>
<g opacity="0.2">
<path d="M93.5099 148.77C93.5099 148.77 91.7799 149.45 89.1299 147.93C89.1299 147.93 92.6999 152.3 93.5099 148.77Z" fill="#FAFAFA"/>
</g>
<g opacity="0.2">
<path d="M92.4098 148C92.4098 148 90.8998 147.23 90.6698 147.89C90.6698 147.89 89.3398 147.4 89.6698 146.89C89.9998 146.38 92.4098 148 92.4098 148Z" fill="#FAFAFA"/>
</g>
<path d="M92.2898 154.94C91.8413 155.299 91.3024 155.528 90.7325 155.6C90.1626 155.672 89.5837 155.586 89.0598 155.35C88.5418 155.1 88.0815 154.745 87.7079 154.308C87.3343 153.871 87.0557 153.361 86.8898 152.81C86.5797 151.698 86.5797 150.522 86.8898 149.41C86.9498 149.12 87.1498 148.41 87.5598 148.41C87.9698 148.41 87.9898 148.96 88.0798 149.23C88.3299 150.014 88.6653 150.769 89.0798 151.48C89.4803 152.174 89.9602 152.818 90.5098 153.4C90.6098 153.57 92.1398 155.07 92.2898 154.94Z" fill="#E6E6E6"/>
<path d="M85.7798 148.509C85.4835 148.869 85.2853 149.3 85.2047 149.759C85.1241 150.218 85.1638 150.69 85.3198 151.129C85.5471 151.698 85.8873 152.215 86.3198 152.649C86.5998 152.969 86.9898 153.309 87.3998 153.189C87.8098 153.069 87.9698 152.509 88.0198 152.059C88.0898 151.349 88.1498 150.649 88.1798 149.939C88.2845 149.26 88.2845 148.569 88.1798 147.889C88.0198 147.369 87.5198 147.489 86.9798 147.669C86.5083 147.83 86.0922 148.121 85.7798 148.509Z" fill="#E6E6E6"/>
<g opacity="0.2">
<path d="M92.1802 153.67C92.5416 153.765 92.9231 153.754 93.2781 153.637C93.6332 153.519 93.9466 153.302 94.1802 153.01C94.5102 152.59 94.8802 151.37 94.3102 151.01C93.776 152.024 93.0531 152.927 92.1802 153.67Z" fill="#FAFAFA"/>
</g>
<g opacity="0.2">
<path d="M87.48 152.17C87.1759 151.976 86.9251 151.708 86.7505 151.392C86.5759 151.076 86.4829 150.721 86.48 150.36C86.48 149.96 87.19 148.15 87.48 149.1C87.58 149.41 87.29 150.21 87.29 150.57C87.2926 151.109 87.3563 151.646 87.48 152.17Z" fill="#FAFAFA"/>
</g>
<g opacity="0.2">
<path d="M89.6498 154.09C89.3244 154.222 88.9645 154.243 88.6262 154.149C88.288 154.055 87.9903 153.851 87.7798 153.57C87.7798 153.95 88.7798 154.57 89.0898 154.81C89.9198 155.36 90.5198 155.1 91.5198 155C91.5198 155 90.0598 154.79 89.6498 154.09Z" fill="#FAFAFA"/>
</g>
<path d="M81.73 183.491L82.09 182.311L82.57 180.721L83.13 178.861L87.62 164.091L88.18 159.851L88.68 156.091L88.78 155.311L89.06 155.341V155.351L89.35 155.381L89.34 155.451L89.24 156.191L88.71 160.211L88.28 163.491L88.18 164.211L88.14 164.321L83.13 180.821L82.56 182.671L82.31 183.531L81.95 184.701L81.73 183.491Z" fill="#E0E0E0"/>
<path d="M87.73 163.92L88.06 164.38C88.7529 163.847 89.4017 163.258 90 162.62C91.1852 161.352 92.5297 160.243 94 159.32L93.71 158.83C92.2113 159.778 90.8431 160.918 89.64 162.22C89.0452 162.832 88.4068 163.4 87.73 163.92Z" fill="#E0E0E0"/>
<path d="M88.5402 160.12C87.8587 159.695 87.3542 159.038 87.1202 158.27C86.9184 157.386 86.9014 156.471 87.0702 155.58C87.9302 156.16 89.0702 156.01 90.0702 156.43C90.4486 156.6 90.7832 156.854 91.0484 157.173C91.3136 157.492 91.5023 157.867 91.6002 158.27C91.8402 159.27 91.7402 160.39 91.1602 160.66C90.2498 160.833 89.308 160.639 88.5402 160.12Z" fill="#E6E6E6"/>
<path d="M92.7898 159.34C93.1468 159.753 93.5893 160.083 94.0866 160.307C94.584 160.532 95.1242 160.645 95.6698 160.64C96.7598 160.64 97.5098 159.22 98.1898 158.37C96.9987 157.874 95.7631 157.492 94.4998 157.23C94.2355 157.165 93.9601 157.161 93.6937 157.216C93.4273 157.271 93.1766 157.385 92.9598 157.55C92.7473 157.721 92.6054 157.965 92.5611 158.234C92.5168 158.503 92.5733 158.78 92.7198 159.01L92.7898 159.34Z" fill="#E6E6E6"/>
<path d="M96.8198 162.341C96.5456 161.829 96.1612 161.384 95.6943 161.038C95.2275 160.692 94.6897 160.454 94.1198 160.341C93.6508 160.286 93.1754 160.342 92.7323 160.505C92.2892 160.669 91.8909 160.934 91.5698 161.281C91.6292 161.612 91.7765 161.922 91.9964 162.177C92.2163 162.432 92.5007 162.623 92.8198 162.731C93.4657 162.935 94.1435 163.02 94.8198 162.981C95.4963 162.937 96.175 163.021 96.8198 163.231V162.341Z" fill="#E6E6E6"/>
<path d="M73.9202 148.51C73.2216 149.036 72.6987 149.761 72.4202 150.59C72.0602 151.86 74.2302 153.68 74.2302 153.68C74.7086 153.889 75.2293 153.982 75.7505 153.952C76.2716 153.923 76.7785 153.771 77.2302 153.51L78.5902 152.56C78.5902 152.56 75.2602 148.63 74.0202 148.81L73.9202 148.51Z" fill="#E6E6E6"/>
<path d="M80.2598 147.321C80.8198 149.371 80.0098 152.241 78.1798 152.741C76.3498 153.241 74.1798 151.191 73.6298 149.141C73.0798 147.091 74.5298 146.611 76.3598 146.141C78.1898 145.671 79.6998 145.271 80.2598 147.321Z" fill="#E6E6E6"/>
<path d="M74.6899 147.701C74.6899 147.701 76.3199 148.581 79.1299 147.381C79.1299 147.381 75.0799 151.311 74.6899 147.701Z" fill="#E6E6E6"/>
<path d="M75.8701 147.059C75.8701 147.059 77.4601 146.469 77.6101 147.149C77.6101 147.149 78.9901 146.819 78.6901 146.269C78.3901 145.719 75.8701 147.059 75.8701 147.059Z" fill="#E6E6E6"/>
<g opacity="0.2">
<path d="M74.6899 147.701C74.6899 147.701 76.3199 148.581 79.1299 147.381C79.1299 147.381 75.0799 151.311 74.6899 147.701Z" fill="#FAFAFA"/>
</g>
<g opacity="0.2">
<path d="M75.8701 147.059C75.8701 147.059 77.4601 146.469 77.6101 147.149C77.6101 147.149 78.9901 146.819 78.6901 146.269C78.3901 145.719 75.8701 147.059 75.8701 147.059Z" fill="#FAFAFA"/>
</g>
<path d="M75.1699 154C75.5728 154.41 76.081 154.701 76.6386 154.84C77.1963 154.98 77.7815 154.962 78.3299 154.79C78.8745 154.602 79.3743 154.303 79.7977 153.913C80.2211 153.522 80.5589 153.048 80.7899 152.52C81.2451 151.459 81.3974 150.293 81.2299 149.15C81.2299 148.86 81.0899 148.15 80.6799 148.08C80.2699 148.01 80.1799 148.58 80.0599 148.84C79.7244 149.584 79.3122 150.291 78.8299 150.95C78.3512 151.594 77.7973 152.178 77.1799 152.69C76.9999 152.8 75.3099 154.12 75.1699 154Z" fill="#E6E6E6"/>
<path d="M82.4002 148.351C82.6494 148.745 82.794 149.196 82.8202 149.661C82.8465 150.127 82.7535 150.591 82.5502 151.011C82.2529 151.548 81.8518 152.02 81.3702 152.401C81.0502 152.681 80.6202 152.971 80.2302 152.811C79.8402 152.651 79.7402 152.071 79.7502 151.611C79.7502 150.901 79.7502 150.201 79.8302 149.491C79.7984 148.818 79.8658 148.144 80.0302 147.491C80.2502 146.991 80.7302 147.171 81.2502 147.411C81.713 147.612 82.1111 147.937 82.4002 148.351Z" fill="#E6E6E6"/>
<g opacity="0.2">
<path d="M75.4399 152.73C75.0743 152.777 74.7029 152.718 74.3697 152.56C74.0366 152.402 73.7556 152.152 73.5599 151.84C73.2799 151.38 73.0499 150.12 73.6599 149.84C74.0661 150.907 74.67 151.887 75.4399 152.73Z" fill="#FAFAFA"/>
</g>
<g opacity="0.2">
<path d="M80.2798 151.789C80.6014 151.627 80.8781 151.388 81.0856 151.093C81.2931 150.798 81.425 150.457 81.4698 150.1C81.4698 149.71 81.0198 147.829 80.5998 148.729C80.5501 149.222 80.5501 149.717 80.5998 150.21C80.5537 150.747 80.4463 151.277 80.2798 151.789Z" fill="#FAFAFA"/>
</g>
<g opacity="0.2">
<path d="M77.9002 153.441C78.2088 153.608 78.564 153.67 78.9109 153.616C79.2579 153.561 79.5774 153.394 79.8202 153.141C79.8202 153.521 78.7102 154.041 78.3702 154.221C77.4802 154.661 76.9102 154.341 75.9302 154.131C75.9302 154.131 77.4102 154.081 77.9002 153.441Z" fill="#FAFAFA"/>
</g>
<path d="M83.2698 192.06L78.1698 163.66L78.0498 154.76L78.6198 154.75L78.7398 163.61L83.9098 192.5L83.2698 192.06Z" fill="#E0E0E0"/>
<path d="M78.65 163.42L78.26 163.84C77.6351 163.222 77.0631 162.553 76.55 161.84C75.5294 160.454 74.3365 159.204 73 158.12L73.35 157.67C74.7245 158.794 75.951 160.087 77 161.52C77.4973 162.197 78.0491 162.833 78.65 163.42Z" fill="#E0E0E0"/>
<path d="M78.2901 159.551C79.0176 159.21 79.5967 158.616 79.9201 157.881C80.2249 157.029 80.3509 156.123 80.2901 155.221C79.3601 155.701 78.2201 155.411 77.2301 155.711C76.8336 155.838 76.4711 156.054 76.1698 156.341C75.8684 156.629 75.636 156.981 75.4901 157.371C75.1301 158.371 75.1001 159.451 75.6501 159.781C76.5258 160.056 77.4751 159.974 78.2901 159.551Z" fill="#E6E6E6"/>
<path d="M74.1602 158.281C73.7596 158.648 73.2835 158.924 72.7653 159.088C72.2471 159.252 71.6992 159.301 71.1602 159.231C70.0802 159.091 69.5002 157.611 68.9302 156.691C70.1705 156.332 71.4434 156.098 72.7302 155.991C72.9993 155.957 73.2726 155.983 73.5303 156.068C73.788 156.153 74.0237 156.294 74.2202 156.481C74.4086 156.678 74.5187 156.937 74.5298 157.21C74.5408 157.482 74.4521 157.749 74.2802 157.961L74.1602 158.281Z" fill="#E6E6E6"/>
<path d="M69.81 160.79C70.1431 160.313 70.5761 159.916 71.0786 159.624C71.5812 159.332 72.1413 159.153 72.72 159.1C73.1933 159.098 73.6603 159.209 74.0826 159.423C74.5049 159.637 74.8707 159.947 75.15 160.33C75.0538 160.654 74.8706 160.946 74.6203 161.173C74.3699 161.4 74.062 161.555 73.73 161.62C73.0692 161.745 72.3908 161.745 71.73 161.62C71.0692 161.495 70.3908 161.495 69.73 161.62L69.81 160.79Z" fill="#E6E6E6"/>
<path d="M85.3502 174.63H79.3502C79.1283 174.62 78.9096 174.685 78.7285 174.814C78.5475 174.942 78.4144 175.127 78.3502 175.34C77.2455 179.262 76.7298 183.326 76.8202 187.4C76.8202 194.4 78.6602 203.82 79.2402 206.59C79.2849 206.821 79.4096 207.029 79.5926 207.177C79.7755 207.325 80.0048 207.404 80.2402 207.4H84.4002C84.6355 207.404 84.8649 207.325 85.0478 207.177C85.2307 207.029 85.3555 206.821 85.4002 206.59C85.9802 203.82 87.8202 194.45 87.8202 187.4C87.9105 183.326 87.3949 179.262 86.2902 175.34C86.2288 175.137 86.1047 174.959 85.9358 174.832C85.7669 174.704 85.5618 174.633 85.3502 174.63Z" fill="#F0F0F0"/>
<path d="M250 372.009C357.082 372.009 443.89 366.941 443.89 360.689C443.89 354.437 357.082 349.369 250 349.369C142.917 349.369 56.1099 354.437 56.1099 360.689C56.1099 366.941 142.917 372.009 250 372.009Z" fill="#F5F5F5"/>
<path d="M120.78 321.77C120.617 321.76 120.464 321.686 120.353 321.565C120.243 321.443 120.185 321.284 120.19 321.12C120.93 291.73 122.44 243.52 122.52 243.25C122.573 243.09 122.686 242.956 122.835 242.876C122.983 242.796 123.157 242.776 123.32 242.82C123.482 242.871 123.618 242.983 123.698 243.132C123.779 243.282 123.797 243.457 123.75 243.62C123.75 243.68 122.2 292.06 121.46 321.15C121.459 321.234 121.441 321.316 121.408 321.393C121.374 321.469 121.326 321.538 121.265 321.596C121.205 321.654 121.133 321.699 121.055 321.729C120.977 321.759 120.894 321.773 120.81 321.77H120.78Z" fill="#263238"/>
<path d="M116.83 223.63C117.08 225.89 119.83 233.74 122.05 233.5C124.27 233.26 125.28 225 125.05 222.74C124.932 221.652 124.387 220.656 123.535 219.971C122.682 219.285 121.593 218.967 120.505 219.085C119.418 219.203 118.422 219.748 117.736 220.6C117.051 221.453 116.732 222.542 116.85 223.63H116.83Z" fill="#000080"/>
<path d="M127.82 248.39C127.57 246.12 124.82 238.27 122.6 238.52C120.38 238.77 119.38 247.01 119.6 249.28C119.718 250.367 120.263 251.363 121.116 252.048C121.968 252.734 123.058 253.053 124.145 252.935C125.232 252.816 126.228 252.271 126.914 251.419C127.599 250.567 127.918 249.477 127.8 248.39H127.82Z" fill="#000080"/>
<path d="M110 241.499C112.26 241.259 120.11 238.549 119.86 236.279C119.61 234.009 111.37 233.059 109.11 233.279C108.572 233.337 108.05 233.501 107.575 233.761C107.1 234.021 106.681 234.372 106.341 234.794C106.002 235.217 105.749 235.701 105.597 236.221C105.445 236.741 105.397 237.286 105.455 237.824C105.514 238.362 105.678 238.884 105.938 239.359C106.198 239.834 106.549 240.253 106.971 240.593C107.393 240.932 107.878 241.185 108.397 241.337C108.917 241.489 109.462 241.537 110 241.479V241.499Z" fill="#000080"/>
<path d="M134.7 230.52C132.44 230.76 124.59 233.52 124.84 235.74C125.09 237.96 133.33 238.96 135.59 238.74C136.136 238.692 136.668 238.536 137.153 238.28C137.637 238.024 138.067 237.674 138.414 237.25C138.762 236.827 139.022 236.338 139.179 235.812C139.336 235.287 139.386 234.736 139.326 234.191C139.267 233.645 139.1 233.118 138.834 232.638C138.568 232.159 138.209 231.737 137.778 231.398C137.348 231.059 136.853 230.809 136.325 230.664C135.796 230.518 135.244 230.479 134.7 230.55V230.52Z" fill="#000080"/>
<path d="M109.69 231.14C111.46 232.57 118.93 236.2 120.36 234.43C121.79 232.66 116.63 226.14 114.86 224.71C114.442 224.339 113.952 224.058 113.422 223.882C112.891 223.706 112.331 223.639 111.774 223.687C111.217 223.734 110.675 223.893 110.182 224.156C109.689 224.418 109.254 224.778 108.904 225.214C108.553 225.649 108.295 226.152 108.145 226.69C107.994 227.228 107.955 227.791 108.028 228.345C108.102 228.899 108.287 229.433 108.572 229.913C108.858 230.393 109.238 230.811 109.69 231.14Z" fill="#000080"/>
<path d="M135 240.88C133.23 239.45 125.76 235.819 124.34 237.589C122.92 239.359 128.06 245.879 129.84 247.299C130.26 247.657 130.746 247.926 131.272 248.092C131.797 248.258 132.351 248.317 132.899 248.265C133.448 248.213 133.98 248.052 134.465 247.791C134.95 247.53 135.378 247.174 135.723 246.744C136.069 246.315 136.324 245.821 136.475 245.291C136.626 244.761 136.669 244.206 136.601 243.659C136.534 243.112 136.357 242.585 136.082 242.107C135.807 241.63 135.439 241.212 135 240.88Z" fill="#000080"/>
<path d="M117.46 248.639C118.89 246.869 122.52 239.399 120.74 237.979C118.96 236.559 112.46 241.699 111.03 243.479C110.346 244.332 110.029 245.422 110.148 246.508C110.267 247.595 110.813 248.59 111.665 249.274C112.518 249.959 113.608 250.276 114.694 250.157C115.781 250.038 116.776 249.492 117.46 248.639Z" fill="#000080"/>
<path d="M127.19 223.37C125.77 225.15 122.13 232.61 123.91 234.04C125.69 235.47 132.19 230.31 133.62 228.54C133.991 228.121 134.272 227.632 134.448 227.102C134.624 226.571 134.69 226.01 134.643 225.454C134.596 224.897 134.437 224.355 134.174 223.862C133.911 223.368 133.552 222.933 133.116 222.583C132.68 222.233 132.178 221.975 131.64 221.824C131.102 221.674 130.539 221.634 129.985 221.708C129.431 221.781 128.897 221.967 128.417 222.252C127.937 222.538 127.519 222.918 127.19 223.37Z" fill="#000080"/>
<g opacity="0.6">
<path d="M116.83 223.63C117.08 225.89 119.83 233.74 122.05 233.5C124.27 233.26 125.28 225 125.05 222.74C124.932 221.652 124.387 220.656 123.535 219.971C122.682 219.285 121.593 218.967 120.505 219.085C119.418 219.203 118.422 219.748 117.736 220.6C117.051 221.453 116.732 222.542 116.85 223.63H116.83Z" fill="white"/>
<path d="M127.82 248.39C127.57 246.12 124.82 238.27 122.6 238.52C120.38 238.77 119.38 247.01 119.6 249.28C119.718 250.367 120.263 251.363 121.116 252.048C121.968 252.734 123.058 253.053 124.145 252.935C125.232 252.816 126.228 252.271 126.914 251.419C127.599 250.567 127.918 249.477 127.8 248.39H127.82Z" fill="white"/>
<path d="M110 241.499C112.26 241.259 120.11 238.549 119.86 236.279C119.61 234.009 111.37 233.059 109.11 233.279C108.572 233.337 108.05 233.501 107.575 233.761C107.1 234.021 106.681 234.372 106.341 234.794C106.002 235.217 105.749 235.701 105.597 236.221C105.445 236.741 105.397 237.286 105.455 237.824C105.514 238.362 105.678 238.884 105.938 239.359C106.198 239.834 106.549 240.253 106.971 240.593C107.393 240.932 107.878 241.185 108.397 241.337C108.917 241.489 109.462 241.537 110 241.479V241.499Z" fill="white"/>
<path d="M134.7 230.52C132.44 230.76 124.59 233.52 124.84 235.74C125.09 237.96 133.33 238.96 135.59 238.74C136.136 238.692 136.668 238.536 137.153 238.28C137.637 238.024 138.067 237.674 138.414 237.25C138.762 236.827 139.022 236.338 139.179 235.812C139.336 235.287 139.386 234.736 139.326 234.191C139.267 233.645 139.1 233.118 138.834 232.638C138.568 232.159 138.209 231.737 137.778 231.398C137.348 231.059 136.853 230.809 136.325 230.664C135.796 230.518 135.244 230.479 134.7 230.55V230.52Z" fill="white"/>
<path d="M109.69 231.14C111.46 232.57 118.93 236.2 120.36 234.43C121.79 232.66 116.63 226.14 114.86 224.71C114.442 224.339 113.952 224.058 113.422 223.882C112.891 223.706 112.331 223.639 111.774 223.687C111.217 223.734 110.675 223.893 110.182 224.156C109.689 224.418 109.254 224.778 108.904 225.214C108.553 225.649 108.295 226.152 108.145 226.69C107.994 227.228 107.955 227.791 108.028 228.345C108.102 228.899 108.287 229.433 108.572 229.913C108.858 230.393 109.238 230.811 109.69 231.14Z" fill="white"/>
<path d="M135 240.88C133.23 239.45 125.76 235.819 124.34 237.589C122.92 239.359 128.06 245.879 129.84 247.299C130.26 247.657 130.746 247.926 131.272 248.092C131.797 248.258 132.351 248.317 132.899 248.265C133.448 248.213 133.98 248.052 134.465 247.791C134.95 247.53 135.378 247.174 135.723 246.744C136.069 246.315 136.324 245.821 136.475 245.291C136.626 244.761 136.669 244.206 136.601 243.659C136.534 243.112 136.357 242.585 136.082 242.107C135.807 241.63 135.439 241.212 135 240.88Z" fill="white"/>
<path d="M117.46 248.639C118.89 246.869 122.52 239.399 120.74 237.979C118.96 236.559 112.46 241.699 111.03 243.479C110.346 244.332 110.029 245.422 110.148 246.508C110.267 247.595 110.813 248.59 111.665 249.274C112.518 249.959 113.608 250.276 114.694 250.157C115.781 250.038 116.776 249.492 117.46 248.639Z" fill="white"/>
<path d="M127.19 223.37C125.77 225.15 122.13 232.61 123.91 234.04C125.69 235.47 132.19 230.31 133.62 228.54C133.991 228.121 134.272 227.632 134.448 227.102C134.624 226.571 134.69 226.01 134.643 225.454C134.596 224.897 134.437 224.355 134.174 223.862C133.911 223.368 133.552 222.933 133.116 222.583C132.68 222.233 132.178 221.975 131.64 221.824C131.102 221.674 130.539 221.634 129.985 221.708C129.431 221.781 128.897 221.967 128.417 222.252C127.937 222.538 127.519 222.918 127.19 223.37Z" fill="white"/>
</g>
<path d="M117.47 236.539C117.576 237.497 117.964 238.403 118.585 239.141C119.206 239.879 120.031 240.417 120.957 240.687C121.883 240.956 122.868 240.945 123.788 240.655C124.708 240.365 125.521 239.809 126.125 239.057C126.729 238.305 127.097 237.392 127.181 236.431C127.266 235.47 127.065 234.506 126.602 233.66C126.139 232.814 125.436 232.123 124.582 231.677C123.727 231.23 122.759 231.046 121.8 231.149C121.161 231.217 120.543 231.411 119.979 231.719C119.415 232.028 118.918 232.444 118.516 232.945C118.114 233.446 117.814 234.021 117.635 234.638C117.455 235.254 117.399 235.901 117.47 236.539Z" fill="#000080"/>
<path d="M118 300.239C112.37 300.359 102.73 295.159 98.9402 290.079C95.1502 284.999 105.88 288.079 104.76 284.079C103.64 280.079 90.3502 283.079 87.8802 277.259C85.4102 271.439 95.0102 272.769 94.6202 269.799C94.2302 266.829 84.2902 267.459 81.0802 261.299C77.8702 255.139 86.6302 258.559 85.2502 256.009C83.8702 253.459 72.8802 242.709 77.4602 240.449C82.0402 238.189 92.3402 249.379 95.7902 250.629C99.2402 251.879 100.02 244.119 104.5 247.809C108.98 251.499 105.69 267.719 110.97 269.809C114.9 271.389 113.21 263.979 117.73 265.809C125.61 269.079 120.24 300.189 118 300.239Z" fill="#000080"/>
<g opacity="0.2">
<path d="M118 300.239C112.37 300.359 102.73 295.159 98.9402 290.079C95.1502 284.999 105.88 288.079 104.76 284.079C103.64 280.079 90.3502 283.079 87.8802 277.259C85.4102 271.439 95.0102 272.769 94.6202 269.799C94.2302 266.829 84.2902 267.459 81.0802 261.299C77.8702 255.139 86.6302 258.559 85.2502 256.009C83.8702 253.459 72.8802 242.709 77.4602 240.449C82.0402 238.189 92.3402 249.379 95.7902 250.629C99.2402 251.879 100.02 244.119 104.5 247.809C108.98 251.499 105.69 267.719 110.97 269.809C114.9 271.389 113.21 263.979 117.73 265.809C125.61 269.079 120.24 300.189 118 300.239Z" fill="white"/>
</g>
<path d="M126.05 293.089C126.14 293.249 125.3 294.089 128.05 294.159C134.9 294.439 147.05 293.979 151.56 287.749C158.06 278.859 143.08 279.679 144.56 274.749C146.04 269.819 162.11 273.849 165.25 266.849C168.39 259.849 156.68 261.219 157.25 257.609C157.82 253.999 170.07 258.679 174.12 251.249C178.17 243.819 167.44 247.799 169.12 244.719C170.8 241.639 184.52 228.859 179 225.999C173.48 223.139 160.69 236.519 156.47 237.999C152.25 239.479 151.27 226.319 145.73 230.709C140.19 235.099 143.82 254.889 137.35 257.349C132.53 259.179 135.16 252.079 129.21 252.349C121.14 252.679 118.48 280.439 126.05 293.089Z" fill="#000080"/>
<g opacity="0.3">
<path d="M126.05 293.089C126.14 293.249 125.3 294.089 128.05 294.159C134.9 294.439 147.05 293.979 151.56 287.749C158.06 278.859 143.08 279.679 144.56 274.749C146.04 269.819 162.11 273.849 165.25 266.849C168.39 259.849 156.68 261.219 157.25 257.609C157.82 253.999 170.07 258.679 174.12 251.249C178.17 243.819 167.44 247.799 169.12 244.719C170.8 241.639 184.52 228.859 179 225.999C173.48 223.139 160.69 236.519 156.47 237.999C152.25 239.479 151.27 226.319 145.73 230.709C140.19 235.099 143.82 254.889 137.35 257.349C132.53 259.179 135.16 252.079 129.21 252.349C121.14 252.679 118.48 280.439 126.05 293.089Z" fill="white"/>
</g>
<path d="M120.92 317.329C120.861 317.323 120.804 317.305 120.753 317.276C120.701 317.247 120.655 317.209 120.619 317.162C120.583 317.115 120.556 317.062 120.541 317.004C120.525 316.947 120.522 316.888 120.53 316.829C126.15 270.829 152.66 252.109 152.93 251.929C152.978 251.896 153.032 251.873 153.089 251.861C153.146 251.849 153.205 251.848 153.262 251.859C153.319 251.87 153.373 251.892 153.422 251.923C153.471 251.955 153.512 251.996 153.545 252.044C153.578 252.092 153.601 252.146 153.613 252.203C153.625 252.26 153.626 252.318 153.615 252.375C153.605 252.432 153.583 252.487 153.551 252.536C153.519 252.584 153.478 252.626 153.43 252.659C153.17 252.849 126.99 271.349 121.43 316.939C121.423 316.998 121.404 317.056 121.374 317.107C121.344 317.159 121.305 317.205 121.257 317.241C121.21 317.277 121.155 317.304 121.098 317.319C121.04 317.334 120.979 317.337 120.92 317.329Z" fill="#263238"/>
<path d="M146.85 258.32C146.76 258.318 146.674 258.288 146.602 258.234C146.53 258.181 146.477 258.106 146.45 258.02C146.412 257.908 146.42 257.784 146.472 257.677C146.525 257.571 146.618 257.489 146.73 257.45C146.9 257.4 150.85 256.15 157.31 257.52C157.425 257.547 157.526 257.617 157.591 257.715C157.656 257.814 157.681 257.934 157.66 258.05C157.636 258.167 157.567 258.269 157.467 258.335C157.368 258.4 157.247 258.424 157.13 258.4C150.91 257.08 147.05 258.29 147.01 258.3C146.959 258.317 146.904 258.324 146.85 258.32Z" fill="#263238"/>
<path d="M142 263.91C141.885 263.907 141.776 263.86 141.695 263.778C141.615 263.695 141.57 263.585 141.57 263.47C141.43 249.55 149.49 238.68 149.57 238.57C149.643 238.48 149.747 238.42 149.862 238.403C149.977 238.387 150.095 238.414 150.19 238.48C150.237 238.516 150.277 238.56 150.307 238.611C150.337 238.662 150.357 238.718 150.366 238.776C150.374 238.835 150.371 238.895 150.356 238.952C150.341 239.009 150.316 239.063 150.28 239.11C150.2 239.21 142.28 249.86 142.46 263.46C142.46 263.578 142.414 263.691 142.332 263.775C142.25 263.859 142.138 263.907 142.02 263.91H142Z" fill="#263238"/>
<path d="M134.06 275.689C134.003 275.688 133.947 275.675 133.895 275.651C133.844 275.627 133.798 275.592 133.76 275.549C133.718 275.508 133.685 275.459 133.662 275.405C133.639 275.351 133.627 275.293 133.627 275.234C133.627 275.176 133.639 275.118 133.662 275.064C133.685 275.009 133.718 274.96 133.76 274.919C133.82 274.869 139.76 269.349 147.6 272.149C147.697 272.199 147.772 272.283 147.812 272.384C147.852 272.486 147.854 272.598 147.818 272.701C147.781 272.803 147.708 272.889 147.613 272.942C147.518 272.995 147.407 273.012 147.3 272.989C140 270.369 134.43 275.519 134.38 275.569C134.338 275.61 134.288 275.642 134.233 275.663C134.178 275.683 134.119 275.692 134.06 275.689Z" fill="#263238"/>
<path d="M129.93 283.91C129.847 283.905 129.766 283.877 129.698 283.829C129.629 283.782 129.574 283.716 129.54 283.64C127.563 278.111 127.07 272.16 128.11 266.38C128.119 266.322 128.139 266.266 128.169 266.216C128.199 266.166 128.24 266.122 128.287 266.088C128.335 266.053 128.389 266.029 128.446 266.015C128.503 266.002 128.562 266 128.62 266.01C128.736 266.03 128.84 266.094 128.909 266.19C128.978 266.285 129.007 266.404 128.99 266.52C128.001 272.135 128.473 277.91 130.36 283.29C130.383 283.343 130.396 283.401 130.397 283.459C130.398 283.517 130.387 283.574 130.366 283.628C130.344 283.682 130.312 283.731 130.272 283.773C130.232 283.814 130.183 283.847 130.13 283.87C130.067 283.898 129.999 283.911 129.93 283.91Z" fill="#263238"/>
<path d="M121.09 333.77C120.979 333.765 120.874 333.718 120.796 333.638C120.718 333.559 120.673 333.452 120.67 333.34L120.09 321.15C118.38 280.62 90.5904 253.06 90.3104 252.79C90.2439 252.705 90.2106 252.598 90.2165 252.49C90.2224 252.382 90.2672 252.279 90.3426 252.201C90.418 252.124 90.519 252.075 90.627 252.066C90.735 252.057 90.8427 252.087 90.9304 252.15C91.2104 252.43 119.26 280.22 120.98 321.15L121.56 333.34C121.563 333.458 121.52 333.572 121.439 333.658C121.359 333.744 121.248 333.795 121.13 333.8L121.09 333.77Z" fill="#263238"/>
<path d="M101.77 267.999H101.7C101.653 267.996 101.608 267.978 101.57 267.949L101.42 267.899C97.8047 266.388 93.9184 265.633 90.0002 265.679C89.8825 265.682 89.7684 265.638 89.6824 265.558C89.5964 265.478 89.5454 265.367 89.5402 265.249C89.5388 265.19 89.5492 265.131 89.5705 265.076C89.5919 265.021 89.624 264.971 89.6648 264.928C89.7057 264.885 89.7546 264.851 89.8087 264.827C89.8628 264.803 89.9211 264.79 89.9802 264.789C94.0306 264.741 98.0486 265.517 101.79 267.069L101.93 267.129H102.01C102.099 267.172 102.17 267.244 102.212 267.333C102.254 267.423 102.264 267.524 102.24 267.619C102.225 267.731 102.168 267.832 102.081 267.903C101.993 267.973 101.882 268.008 101.77 267.999Z" fill="#263238"/>
<path d="M105.7 273.229C105.642 273.225 105.585 273.21 105.533 273.183C105.481 273.157 105.434 273.12 105.397 273.075C105.36 273.03 105.332 272.978 105.315 272.922C105.298 272.866 105.293 272.807 105.3 272.749C106.37 260.749 100.18 250.939 100.11 250.849C100.054 250.748 100.038 250.63 100.066 250.518C100.094 250.406 100.164 250.309 100.262 250.247C100.36 250.186 100.477 250.164 100.59 250.186C100.704 250.209 100.804 250.274 100.87 250.369C100.93 250.469 107.29 260.549 106.18 272.829C106.175 272.887 106.159 272.943 106.132 272.995C106.105 273.046 106.068 273.092 106.024 273.129C105.979 273.166 105.927 273.194 105.872 273.211C105.816 273.228 105.758 273.234 105.7 273.229Z" fill="#263238"/>
<path d="M109.76 280.159C109.647 280.157 109.539 280.111 109.46 280.029C107.973 278.683 106.174 277.728 104.226 277.25C102.278 276.772 100.242 276.785 98.3001 277.289C98.1847 277.32 98.0619 277.303 97.9588 277.243C97.8557 277.183 97.7806 277.085 97.7501 276.969C97.7351 276.913 97.7315 276.854 97.7395 276.796C97.7476 276.738 97.767 276.683 97.7968 276.632C97.8266 276.582 97.8661 276.538 97.913 276.503C97.9599 276.469 98.0133 276.443 98.0701 276.429C100.16 275.87 102.359 275.852 104.458 276.377C106.558 276.902 108.489 277.952 110.07 279.429C110.112 279.47 110.145 279.519 110.168 279.574C110.191 279.628 110.203 279.686 110.203 279.744C110.203 279.803 110.191 279.861 110.168 279.915C110.145 279.969 110.112 280.018 110.07 280.059C110.028 280.096 109.978 280.124 109.925 280.141C109.872 280.158 109.816 280.164 109.76 280.159Z" fill="#263238"/>
<path d="M114.91 291.579C114.844 291.578 114.779 291.561 114.72 291.529C114.668 291.503 114.621 291.466 114.583 291.422C114.545 291.377 114.517 291.325 114.499 291.269C114.481 291.213 114.475 291.154 114.48 291.096C114.486 291.038 114.503 290.981 114.53 290.929C116.569 286.324 117.392 281.273 116.92 276.259C116.912 276.141 116.95 276.025 117.027 275.935C117.104 275.845 117.213 275.789 117.33 275.779C117.389 275.774 117.448 275.78 117.504 275.798C117.56 275.816 117.612 275.845 117.657 275.883C117.702 275.921 117.738 275.968 117.765 276.02C117.791 276.073 117.807 276.131 117.81 276.189C118.321 281.37 117.462 286.594 115.32 291.339C115.282 291.414 115.223 291.477 115.151 291.519C115.078 291.562 114.994 291.583 114.91 291.579Z" fill="#263238"/>
<path d="M146.16 335.689C146.16 349.899 139.76 361.429 120.4 361.429C101.92 361.429 94.6504 349.899 94.6504 335.689C94.6466 330.528 96.1973 325.486 99.1004 321.219H141.71C144.613 325.486 146.164 330.528 146.16 335.689Z" fill="#000080"/>
<path opacity="0.7" d="M146.16 335.689C146.16 349.899 139.76 361.429 120.4 361.429C101.92 361.429 94.6504 349.899 94.6504 335.689C94.6466 330.528 96.1973 325.486 99.1004 321.219H141.71C144.613 325.486 146.164 330.528 146.16 335.689Z" fill="white"/>
<path d="M294.1 348.859L304.06 347.409L301.55 324.109L291.58 325.559L294.1 348.859Z" fill="#E8BFBF"/>
<path d="M311.72 347.759C312.583 347.693 313.4 347.341 314.04 346.759C314.174 346.589 314.265 346.39 314.305 346.177C314.345 345.965 314.333 345.746 314.27 345.539C314.241 345.411 314.179 345.293 314.092 345.195C314.004 345.097 313.894 345.023 313.77 344.979C312.44 344.499 308.77 347.189 308.39 347.489C308.349 347.52 308.319 347.562 308.303 347.61C308.287 347.658 308.286 347.71 308.3 347.759C308.317 347.804 308.347 347.842 308.386 347.869C308.426 347.896 308.472 347.91 308.52 347.909C309.589 347.954 310.66 347.904 311.72 347.759ZM313.12 345.419C313.268 345.385 313.422 345.385 313.57 345.419C313.622 345.435 313.669 345.465 313.706 345.506C313.743 345.546 313.768 345.596 313.78 345.649C313.821 345.786 313.829 345.931 313.803 346.072C313.777 346.213 313.718 346.346 313.63 346.459C313.12 347.089 311.49 347.459 309.23 347.459C310.414 346.574 311.739 345.898 313.15 345.459L313.12 345.419Z" fill="#000080"/>
<path d="M308.58 347.919H308.66C309.77 347.189 311.76 344.649 311.38 343.559C311.302 343.367 311.159 343.209 310.976 343.112C310.793 343.015 310.582 342.986 310.38 343.029C310.141 343.036 309.905 343.092 309.689 343.194C309.472 343.295 309.278 343.44 309.12 343.619C308.05 344.859 308.26 347.619 308.26 347.699C308.26 347.739 308.27 347.779 308.287 347.815C308.304 347.851 308.329 347.884 308.36 347.909C308.394 347.926 308.431 347.936 308.469 347.938C308.507 347.939 308.545 347.933 308.58 347.919ZM310.25 343.499L310.39 343.429C310.83 343.429 310.88 343.579 310.89 343.629C311.13 344.299 309.8 346.249 308.7 347.149C308.6 345.999 308.87 344.846 309.47 343.859C309.681 343.641 309.966 343.509 310.27 343.489L310.25 343.499Z" fill="#000080"/>
<path d="M303 343.28L294.17 345.39C293.978 345.428 293.808 345.537 293.691 345.694C293.575 345.851 293.521 346.045 293.54 346.24L293.83 359.03C293.859 359.242 293.93 359.446 294.039 359.631C294.147 359.815 294.291 359.977 294.462 360.106C294.633 360.235 294.827 360.329 295.035 360.383C295.242 360.437 295.458 360.449 295.67 360.42C295.733 360.425 295.797 360.425 295.86 360.42C299.68 359.42 301.49 358.82 306.35 357.69C309.35 357.01 318.78 356.29 322.65 354.57C326.52 352.85 325.01 348.93 323.25 349.3C317.57 350.52 310.25 348.09 306.14 344.39C305.62 344.08 303.65 343.13 303 343.28Z" fill="#263238"/>
<path opacity="0.2" d="M301.55 324.109L302.84 336.119L292.88 337.579L291.58 325.569L301.55 324.109Z" fill="black"/>
<path d="M306.87 331.179L288.44 334.619C288.44 334.619 279.49 321.839 277.8 312.769C276.04 303.319 277.92 271.159 277.8 270.769C272.59 253.169 258.42 207.569 251.59 190.769C247.8 181.469 245.14 175.209 245.14 175.209L247.05 174.779L262.1 168.619L273.1 170.679C273.1 170.679 306.41 238.049 309.9 263.389C312.47 282.289 306.87 331.179 306.87 331.179Z" fill="#000080"/>
<path opacity="0.3" d="M306.87 331.179L288.44 334.619C288.44 334.619 279.49 321.839 277.8 312.769C276.04 303.319 277.92 271.159 277.8 270.769C272.59 253.169 258.42 207.569 251.59 190.769C247.8 181.469 245.14 175.209 245.14 175.209L247.05 174.779L262.1 168.619L273.1 170.679C273.1 170.679 306.41 238.049 309.9 263.389C312.47 282.289 306.87 331.179 306.87 331.179Z" fill="white"/>
<path opacity="0.2" d="M273.46 255.49C268.25 237.89 257.73 211.2 250.89 194.42L246.36 178.42L245.49 175.34L247.08 178.25L264.93 217.79C272.81 233 273.58 255.92 273.46 255.49Z" fill="black"/>
<path d="M192.57 343.379L201.45 347.119L210.92 326.789L202.05 323.049L192.57 343.379Z" fill="#E8BFBF"/>
<path d="M207.23 351.37C207.933 351.81 208.766 351.997 209.59 351.9C209.79 351.847 209.975 351.745 210.126 351.604C210.278 351.462 210.393 351.286 210.46 351.09C210.511 350.975 210.531 350.85 210.519 350.725C210.507 350.601 210.462 350.482 210.39 350.38C209.63 349.26 205.3 349.27 204.82 349.27C204.772 349.274 204.727 349.292 204.688 349.32C204.65 349.348 204.619 349.386 204.6 349.43C204.588 349.474 204.589 349.522 204.603 349.566C204.617 349.611 204.644 349.65 204.68 349.68C205.476 350.32 206.33 350.886 207.23 351.37ZM209.63 350.37C209.768 350.427 209.889 350.52 209.98 350.64C210.004 350.684 210.017 350.734 210.017 350.785C210.017 350.835 210.004 350.885 209.98 350.93C209.933 351.058 209.857 351.173 209.758 351.267C209.66 351.36 209.54 351.43 209.41 351.47C208.65 351.67 207.2 351.03 205.41 349.75C206.836 349.717 208.256 349.931 209.61 350.38L209.63 350.37Z" fill="#000080"/>
<path d="M204.72 349.718H204.8C206.07 349.788 209.04 348.948 209.37 347.898C209.423 347.703 209.406 347.495 209.319 347.312C209.233 347.128 209.084 346.982 208.9 346.898C208.713 346.768 208.5 346.678 208.276 346.635C208.052 346.592 207.822 346.596 207.6 346.648C206.06 346.988 204.69 349.218 204.6 349.308C204.583 349.343 204.574 349.38 204.574 349.418C204.574 349.457 204.583 349.494 204.6 349.528C204.602 349.568 204.614 349.606 204.635 349.639C204.656 349.672 204.685 349.7 204.72 349.718ZM208.51 347.248H208.65C209 347.478 208.94 347.638 208.92 347.688C208.73 348.328 206.61 349.088 205.25 349.168C205.817 348.223 206.672 347.484 207.69 347.058C207.981 347.009 208.281 347.069 208.53 347.228L208.51 347.248Z" fill="#000080"/>
<path d="M203.06 343L195.06 339.64C194.886 339.552 194.686 339.535 194.5 339.591C194.314 339.646 194.157 339.771 194.06 339.94L187.06 349.94C186.962 350.12 186.9 350.318 186.878 350.522C186.857 350.727 186.876 350.933 186.934 351.13C186.993 351.327 187.09 351.511 187.219 351.67C187.349 351.83 187.509 351.962 187.69 352.06L187.86 352.14C191.35 353.57 193.11 354.09 197.5 355.97C200.19 357.13 207.89 361.92 211.85 362.77C215.81 363.62 216.85 359.77 215.29 359.04C210.22 356.77 205.96 350.77 204.85 345.58C204.6 345.08 203.62 343.23 203.06 343Z" fill="#263238"/>
<path opacity="0.2" d="M211.31 327.03L206.18 337.38L197.39 333.44L202.51 323.08L211.31 327.03Z" fill="black"/>
<path d="M213.16 338.309L195.48 328.889C195.48 328.889 192.09 316.299 195.48 308.269C202 292.819 218.98 270.099 219.09 269.669C223.62 251.889 231.56 203.179 234.28 185.269C235.78 175.339 236.67 173.199 236.67 173.199L238.54 173.809L265.54 173.859C265.54 173.859 270.64 214.859 251.08 278.259C246.22 294.039 238.08 307.159 224.65 324.909C221.054 329.571 217.219 334.044 213.16 338.309Z" fill="#000080"/>
<path opacity="0.3" d="M213.16 338.309L195.48 328.889C195.48 328.889 192.09 316.299 195.48 308.269C202 292.819 218.98 270.099 219.09 269.669C223.62 251.889 231.56 203.179 234.28 185.269C235.78 175.339 236.67 173.199 236.67 173.199L238.54 173.809L265.54 173.859C265.54 173.859 270.64 214.859 251.08 278.259C246.22 294.039 238.08 307.159 224.65 324.909C221.054 329.571 217.219 334.044 213.16 338.309Z" fill="white"/>
<path d="M289.56 140.389C289.97 137.139 291.346 134.087 293.51 131.629C294.06 131.049 296.17 130.169 297.37 129.389C303.24 125.539 315 120.729 315 120.729L318.63 123.889C318.63 123.889 311.47 130.809 307.21 134.129C306.37 134.789 305.4 135.579 304.38 136.419C302.52 137.959 293.8 143.709 292.14 145.159L289.56 140.389Z" fill="#E8BFBF"/>
<path d="M325.34 118.939L318.63 123.939L314.87 121.169C315.835 119.947 316.874 118.785 317.98 117.689C318.32 117.359 318.59 116.964 318.776 116.528C318.961 116.092 319.058 115.623 319.06 115.149C318.984 113.602 319.33 112.064 320.06 110.699C320.058 110.672 320.058 110.646 320.06 110.619C320.402 110.138 320.874 109.764 321.42 109.541C321.967 109.318 322.566 109.255 323.147 109.36C323.728 109.465 324.267 109.733 324.702 110.133C325.136 110.533 325.447 111.048 325.6 111.619L326.6 115.199C326.783 115.877 326.762 116.594 326.537 117.26C326.313 117.926 325.896 118.51 325.34 118.939Z" fill="#E8BFBF"/>
<path d="M291.7 141.73L289.93 143.35C289.38 142.91 288.51 142.2 287.41 141.28C278.79 134.13 257.18 116.77 265.79 111.82C273.18 107.57 281.02 120.56 284.93 124.47C286.766 126.427 288.357 128.6 289.67 130.94C291.51 134.26 292.87 138.27 291.7 141.73Z" fill="#263238"/>
<path d="M289.66 129.389C286.593 131.632 284 134.46 282.03 137.709C282.752 140.072 283.971 142.253 285.607 144.105C287.242 145.958 289.255 147.439 291.51 148.449C294.016 142.765 295.091 136.554 294.64 130.359C293.08 129.999 291.22 129.729 289.66 129.389Z" fill="#263238"/>
<path d="M242.21 110.81C239.12 111.81 235.59 111 233.61 113.57C231.63 116.14 231.04 119.51 231.04 122.75C231.222 127.257 231.913 131.728 233.1 136.08C234.34 141.413 235.583 146.73 236.83 152.03C237.68 155.67 236.78 172.58 237.69 172.86C237.69 172.86 265.96 172.31 273.05 171.31C273.05 171.31 273.66 153.93 274.23 148.01C274.36 146.7 276.35 141.12 276.58 139.72C277.69 133.12 275.52 128.47 273.24 122.17C273.24 122.17 268.24 112.1 265.79 111.82C261.44 111.33 250.8 108 242.21 110.81Z" fill="#263238"/>
<path d="M241 119.139C240.9 118.559 235.88 108.419 231.07 115.509C224.38 125.369 223.93 137.749 223.93 137.749C223.93 137.749 219.82 149.749 222.68 152.409C225.54 155.069 228.68 156.729 230.68 155.239C232.092 154.006 233.218 152.481 233.98 150.769C233.98 150.769 242.78 129.459 241 119.139Z" fill="#263238"/>
<path d="M240.69 107.049C240.202 107.488 239.821 108.033 239.576 108.642C239.332 109.25 239.229 109.907 239.278 110.562C239.326 111.216 239.523 111.851 239.855 112.417C240.186 112.983 240.643 113.466 241.19 113.829C240.896 114.857 240.899 115.947 241.198 116.974C241.497 118.001 242.079 118.922 242.878 119.633C243.677 120.343 244.661 120.813 245.715 120.99C246.77 121.166 247.853 121.041 248.84 120.629C248 122.149 248.95 124.159 250.42 125.099C251.97 125.901 253.676 126.358 255.42 126.439C257.17 126.522 258.85 127.156 260.22 128.249L265.56 120.559C266.344 119.619 266.853 118.48 267.03 117.269C267.08 116.059 266.16 114.719 264.95 114.809C265.556 114.154 265.894 113.295 265.896 112.403C265.898 111.511 265.563 110.65 264.959 109.993C264.355 109.336 263.526 108.931 262.637 108.858C261.747 108.785 260.863 109.049 260.16 109.599C260.245 109.075 260.175 108.536 259.959 108.051C259.742 107.566 259.388 107.155 258.94 106.869C258.031 106.321 257 106.008 255.94 105.959L240.69 107.049Z" fill="#263238"/>
<path d="M243.9 94C245.29 99.1 246.98 108.51 243.61 112.23C249.786 114.896 255.345 118.807 259.94 123.72C261.154 122.604 261.986 121.135 262.32 119.52C262.654 117.905 262.472 116.226 261.8 114.72C261.407 113.764 260.826 112.896 260.09 112.17C259.355 111.443 258.481 110.872 257.52 110.49C253.8 108.91 253.77 105.26 254.39 101.75L243.9 94Z" fill="#E8BFBF"/>
<path opacity="0.2" d="M246 102.689L249.51 103.639C251.015 104.048 252.588 104.14 254.13 103.909C254.001 104.991 254.113 106.087 254.46 107.119C253.285 107.573 252.004 107.676 250.772 107.415C249.54 107.154 248.41 106.54 247.52 105.649C246.871 104.743 246.359 103.745 246 102.689Z" fill="black"/>
<path d="M237.09 89.6499C240.8 97.4899 242.21 100.89 247.93 103.39C256.55 107.16 265.35 100.86 264.05 92.0699C262.87 84.1599 256.99 72.6499 247.84 72.6099C245.825 72.5912 243.84 73.0872 242.071 74.0509C240.302 75.0146 238.808 76.4141 237.731 78.1167C236.655 79.8193 236.031 81.7687 235.918 83.78C235.806 85.7913 236.209 87.798 237.09 89.6099V89.6499Z" fill="#E8BFBF"/>
<path d="M241.17 74.6691C238.46 73.4091 235.1 74.4391 232.84 76.4191C230.58 78.3991 229.15 81.2591 227.84 84.0091C227.051 85.4721 226.446 87.0273 226.04 88.6391C225.635 90.27 225.857 91.9932 226.66 93.4691C227.088 94.1586 227.674 94.7367 228.37 95.1556C229.065 95.5746 229.85 95.8225 230.66 95.8791C231.158 95.9098 231.638 96.076 232.049 96.3597C232.46 96.6434 232.785 97.034 232.99 97.4891C233.195 98.3301 233.195 99.2081 232.99 100.049C232.8 100.865 232.8 101.713 232.99 102.529C233.262 103.171 233.71 103.723 234.281 104.122C234.852 104.522 235.524 104.753 236.22 104.789C237.613 104.828 239 104.604 240.31 104.129C240.709 103.993 241.137 103.965 241.55 104.05C241.963 104.134 242.346 104.327 242.66 104.609C242.82 104.756 242.955 104.928 243.06 105.119C243.162 105.293 243.31 105.434 243.488 105.529C243.665 105.623 243.866 105.667 244.067 105.654C244.268 105.642 244.461 105.574 244.626 105.458C244.791 105.343 244.92 105.184 245 104.999C246.21 102.119 244.45 97.5291 241.83 93.9991C240.44 92.1391 240.51 92.6091 239.97 90.3491C239.51 88.4691 240.2 86.5091 241.04 84.7691C242.17 82.4391 243.61 80.1791 243.16 77.3991C243.075 76.8165 242.85 76.2634 242.503 75.7877C242.156 75.312 241.699 74.928 241.17 74.6691Z" fill="#263238"/>
<path d="M237.32 97.6787C238.555 98.9891 240.26 99.7553 242.06 99.8087C244.45 99.8687 245.06 97.5887 243.9 95.6387C242.9 93.8887 240.36 91.7587 238.2 92.6387C236.04 93.5187 235.82 95.9987 237.32 97.6787Z" fill="#E8BFBF"/>
<path d="M252 88.2603C252.28 88.9403 252.83 89.3103 253.26 89.1303C253.69 88.9503 253.8 88.3003 253.56 87.6303C253.32 86.9603 252.74 86.6303 252.3 86.7603C251.86 86.8903 251.77 87.6003 252 88.2603Z" fill="#263238"/>
<path d="M259.35 85.0999C259.62 85.7899 260.17 86.1499 260.6 85.9799C261.03 85.8099 261.14 85.1499 260.9 84.4799C260.66 83.8099 260.08 83.4799 259.65 83.6099C259.22 83.7399 259.09 84.4499 259.35 85.0999Z" fill="#263238"/>
<path d="M259.46 83.7287L260.85 82.6387C260.85 82.6387 260.55 84.1887 259.46 83.7287Z" fill="#263238"/>
<path d="M257.45 86.5703C259.15 88.2503 260.45 88.5703 262.27 89.7103C262.252 90.1695 262.088 90.6109 261.802 90.9706C261.516 91.3303 261.123 91.5894 260.68 91.7103L257.45 86.5703Z" fill="#ED847E"/>
<path d="M259.9 94.9186C260.218 94.8018 260.526 94.6579 260.82 94.4886C260.866 94.4632 260.9 94.4206 260.915 94.3701C260.93 94.3195 260.925 94.2651 260.9 94.2186C260.871 94.1734 260.826 94.1404 260.775 94.1257C260.723 94.1109 260.668 94.1155 260.62 94.1386C259.855 94.583 258.995 94.8384 258.111 94.8836C257.228 94.9288 256.346 94.7625 255.54 94.3986C255.49 94.374 255.434 94.3696 255.381 94.3864C255.329 94.4032 255.285 94.4399 255.26 94.4886C255.246 94.512 255.237 94.5381 255.233 94.5651C255.23 94.5922 255.232 94.6197 255.239 94.6459C255.247 94.6721 255.259 94.6965 255.277 94.7176C255.294 94.7387 255.315 94.7561 255.34 94.7686C256.051 95.0967 256.821 95.279 257.604 95.3048C258.388 95.3305 259.168 95.1992 259.9 94.9186Z" fill="#263238"/>
<path d="M251.76 82.8099C251.755 82.9016 251.721 82.9895 251.664 83.0612C251.607 83.133 251.528 83.1849 251.44 83.2099C249.52 83.7799 248.67 86.2099 248.67 86.2099C248.652 86.2637 248.624 86.3135 248.587 86.3565C248.55 86.3994 248.505 86.4347 248.454 86.4602C248.404 86.4858 248.348 86.5011 248.292 86.5053C248.235 86.5095 248.179 86.5026 248.125 86.4849C248.071 86.4671 248.021 86.439 247.978 86.402C247.935 86.365 247.9 86.3199 247.874 86.2693C247.849 86.2187 247.834 86.1636 247.829 86.107C247.825 86.0505 247.832 85.9937 247.85 85.9399C247.92 85.8399 248.85 83.0499 251.19 82.3499C251.301 82.3215 251.419 82.3368 251.519 82.3926C251.62 82.4483 251.695 82.5404 251.73 82.6499C251.753 82.6997 251.764 82.7548 251.76 82.8099Z" fill="#263238"/>
<path d="M260.61 81.6284C260.535 81.6814 260.446 81.7099 260.355 81.7099C260.263 81.7099 260.174 81.6814 260.1 81.6284C258.54 80.3684 256.05 81.0584 256.04 81.0684C255.985 81.0853 255.928 81.0912 255.871 81.0857C255.814 81.0802 255.759 81.0635 255.709 81.0365C255.659 81.0096 255.614 80.9728 255.578 80.9285C255.543 80.8842 255.516 80.8332 255.5 80.7784C255.468 80.6684 255.481 80.5505 255.535 80.4496C255.589 80.3488 255.681 80.2731 255.79 80.2384C255.91 80.2384 258.79 79.4184 260.64 80.9384C260.727 81.0124 260.782 81.1164 260.795 81.2296C260.808 81.3429 260.778 81.4568 260.71 81.5484C260.681 81.5809 260.648 81.608 260.61 81.6284Z" fill="#263238"/>
<path d="M252.16 86.8691L253.55 85.7891C253.55 85.7891 253.23 87.3391 252.16 86.8691Z" fill="#263238"/>
<path d="M241.77 73.3594C240.675 73.4558 239.617 73.7993 238.675 74.364C237.733 74.9287 236.931 75.6998 236.33 76.6194C235.53 77.8594 235.25 79.7394 236.43 80.6194C237.032 80.9866 237.725 81.1772 238.43 81.1694C241.43 81.4394 245.22 79.0894 245.22 79.0894C244.05 74.0894 254.48 70.2694 259.62 77.9694C261.13 80.2294 260.72 81.8694 263.23 82.9194C264.41 83.4094 265.97 83.2694 266.73 84.3094C267.98 86.0194 265.57 88.9194 267.1 90.3894C268.15 91.3894 270.53 91.0094 270.68 92.4594C270.74 93.1394 270.3 94.1194 270.95 94.3194C271.31 94.4294 271.65 94.0994 271.88 93.7994C272.505 93.1282 272.964 92.3199 273.22 91.4394C273.342 90.9992 273.315 90.531 273.143 90.1077C272.971 89.6845 272.664 89.33 272.27 89.0994C271.63 88.8094 269.94 89.0994 270.05 89.8194C269.791 88.2334 269.707 86.6237 269.8 85.0194C270.08 83.6794 271.36 82.5094 270.97 81.1894C270.58 79.8694 268.89 79.1894 267.44 79.0094C265.99 78.8294 264.34 78.6194 263.44 77.4594C262.54 76.2994 262.9 74.2994 262.58 72.6894C262.312 71.6832 261.81 70.7545 261.115 69.9794C260.42 69.2043 259.551 68.6046 258.58 68.2294C252.73 65.7194 243.76 66.0794 241.77 73.3594Z" fill="#263238"/>
<path d="M258.24 99.9993L238.24 110.049C235.06 111.643 232.592 114.369 231.322 117.691C230.053 121.014 230.073 124.691 231.38 127.999L241 152.599C242.298 155.904 244.782 158.606 247.967 160.176C251.152 161.747 254.808 162.072 258.22 161.089L279.72 154.889C281.626 154.342 283.398 153.403 284.92 152.132C286.443 150.861 287.683 149.286 288.562 147.507C289.44 145.729 289.937 143.787 290.021 141.805C290.105 139.823 289.774 137.846 289.05 135.999L277.9 107.579C277.181 105.731 276.085 104.053 274.68 102.652C273.276 101.252 271.595 100.16 269.744 99.4462C267.894 98.7327 265.915 98.4134 263.934 98.5086C261.953 98.6039 260.013 99.1116 258.24 99.9993ZM254.93 142.239C253.333 142.865 251.587 143.004 249.911 142.637C248.236 142.27 246.707 141.415 245.518 140.179C244.329 138.943 243.533 137.382 243.231 135.694C242.929 134.005 243.135 132.266 243.822 130.694C244.509 129.123 245.646 127.79 247.091 126.866C248.535 125.941 250.221 125.465 251.936 125.499C253.651 125.533 255.317 126.074 256.724 127.055C258.131 128.036 259.215 129.412 259.84 131.009C260.261 132.071 260.467 133.206 260.448 134.348C260.429 135.491 260.184 136.618 259.728 137.665C259.271 138.712 258.613 139.659 257.789 140.451C256.966 141.243 255.994 141.864 254.93 142.279V142.239Z" fill="#000080"/>
<path d="M258.24 99.9993L238.24 110.049C235.06 111.643 232.592 114.369 231.322 117.691C230.053 121.014 230.073 124.691 231.38 127.999L241 152.599C242.298 155.904 244.782 158.606 247.967 160.176C251.152 161.747 254.808 162.072 258.22 161.089L279.72 154.889C281.626 154.342 283.398 153.403 284.92 152.132C286.443 150.861 287.683 149.286 288.562 147.507C289.44 145.729 289.937 143.787 290.021 141.805C290.105 139.823 289.774 137.846 289.05 135.999L277.9 107.579C277.181 105.731 276.085 104.053 274.68 102.652C273.276 101.252 271.595 100.16 269.744 99.4462C267.894 98.7327 265.915 98.4134 263.934 98.5086C261.953 98.6039 260.013 99.1116 258.24 99.9993ZM254.93 142.239C253.333 142.865 251.587 143.004 249.911 142.637C248.236 142.27 246.707 141.415 245.518 140.179C244.329 138.943 243.533 137.382 243.231 135.694C242.929 134.005 243.135 132.266 243.822 130.694C244.509 129.123 245.646 127.79 247.091 126.866C248.535 125.941 250.221 125.465 251.936 125.499C253.651 125.533 255.317 126.074 256.724 127.055C258.131 128.036 259.215 129.412 259.84 131.009C260.261 132.071 260.467 133.206 260.448 134.348C260.429 135.491 260.184 136.618 259.728 137.665C259.271 138.712 258.613 139.659 257.789 140.451C256.966 141.243 255.994 141.864 254.93 142.279V142.239Z" fill="#000080"/>
<path opacity="0.1" d="M289.05 135.999L277.9 107.579C277.181 105.731 276.085 104.053 274.681 102.652C273.276 101.252 271.595 100.16 269.745 99.4462C267.894 98.7327 265.915 98.4134 263.934 98.5086C261.953 98.6039 260.014 99.1116 258.24 99.9993L252.43 102.999L248.53 104.999L238.25 110.169C235.097 111.759 232.647 114.464 231.377 117.76C230.108 121.055 230.109 124.705 231.38 127.999L241 152.599C242.298 155.904 244.782 158.606 247.967 160.176C251.152 161.747 254.808 162.072 258.22 161.089L279.73 154.889C281.432 154.399 283.027 153.591 284.43 152.509C285.484 151.715 286.417 150.772 287.2 149.709C288.652 147.771 289.584 145.494 289.908 143.095C290.231 140.695 289.936 138.253 289.05 135.999ZM254.93 142.259C253.334 142.883 251.589 143.019 249.916 142.651C248.242 142.284 246.715 141.429 245.527 140.194C244.34 138.959 243.544 137.4 243.242 135.713C242.94 134.027 243.144 132.288 243.829 130.718C244.513 129.147 245.648 127.815 247.09 126.889C248.531 125.963 250.215 125.485 251.928 125.515C253.641 125.545 255.307 126.082 256.715 127.058C258.123 128.034 259.211 129.406 259.84 130.999C260.262 132.062 260.47 133.198 260.452 134.341C260.433 135.484 260.189 136.613 259.732 137.661C259.276 138.709 258.617 139.657 257.793 140.45C256.968 141.242 255.996 141.864 254.93 142.279V142.259Z" fill="white"/>
<path d="M258.44 101.919L239.69 111.339C236.715 112.832 234.406 115.383 233.215 118.491C232.023 121.599 232.036 125.04 233.25 128.139L242.3 151.199C243.509 154.306 245.836 156.849 248.824 158.329C251.812 159.809 255.245 160.119 258.45 159.199L278.61 153.379C280.395 152.864 282.052 151.983 283.477 150.791C284.902 149.599 286.062 148.123 286.884 146.457C287.705 144.791 288.17 142.972 288.249 141.116C288.327 139.26 288.018 137.408 287.34 135.679L276.89 108.999C276.213 107.267 275.181 105.695 273.862 104.384C272.543 103.073 270.964 102.052 269.228 101.386C267.492 100.719 265.635 100.423 263.778 100.514C261.92 100.606 260.102 101.085 258.44 101.919ZM243.69 137.369C243.065 135.773 242.927 134.027 243.294 132.352C243.661 130.677 244.517 129.149 245.752 127.96C246.988 126.771 248.548 125.976 250.236 125.674C251.923 125.372 253.663 125.577 255.234 126.263C256.805 126.949 258.137 128.086 259.062 129.53C259.988 130.973 260.464 132.658 260.431 134.373C260.399 136.087 259.859 137.753 258.88 139.16C257.9 140.567 256.526 141.653 254.93 142.279C253.87 142.696 252.737 142.901 251.598 142.88C250.459 142.859 249.335 142.613 248.291 142.157C247.247 141.701 246.303 141.043 245.513 140.221C244.724 139.4 244.104 138.431 243.69 137.369Z" fill="#000080"/>
<path opacity="0.1" d="M258.44 101.919L239.69 111.339C236.715 112.832 234.406 115.383 233.215 118.491C232.023 121.599 232.036 125.04 233.25 128.139L242.3 151.199C243.509 154.306 245.836 156.849 248.824 158.329C251.812 159.809 255.245 160.119 258.45 159.199L278.61 153.379C280.395 152.864 282.052 151.983 283.477 150.791C284.902 149.599 286.062 148.123 286.884 146.457C287.705 144.791 288.17 142.972 288.249 141.116C288.327 139.26 288.018 137.408 287.34 135.679L276.89 108.999C276.213 107.267 275.181 105.695 273.862 104.384C272.543 103.073 270.964 102.052 269.228 101.386C267.492 100.719 265.635 100.423 263.778 100.514C261.92 100.606 260.102 101.085 258.44 101.919ZM243.69 137.369C243.065 135.773 242.927 134.027 243.294 132.352C243.661 130.677 244.517 129.149 245.752 127.96C246.988 126.771 248.548 125.976 250.236 125.674C251.923 125.372 253.663 125.577 255.234 126.263C256.805 126.949 258.137 128.086 259.062 129.53C259.988 130.973 260.464 132.658 260.431 134.373C260.399 136.087 259.859 137.753 258.88 139.16C257.9 140.567 256.526 141.653 254.93 142.279C253.87 142.696 252.737 142.901 251.598 142.88C250.459 142.859 249.335 142.613 248.291 142.157C247.247 141.701 246.303 141.043 245.513 140.221C244.724 139.4 244.104 138.431 243.69 137.369Z" fill="#000080"/>
<path d="M351.62 92.9992L351.05 93.9992L350.73 94.5792L349.82 96.2292L350.2 100.459C350.22 100.638 350.2 100.819 350.14 100.989C350.078 101.173 349.977 101.342 349.845 101.483C349.712 101.625 349.55 101.736 349.37 101.809L341.47 104.899C341.289 104.971 341.095 105.001 340.901 104.987C340.707 104.974 340.519 104.916 340.35 104.819C340.238 104.763 340.137 104.689 340.05 104.599L335.58 100.049L329.22 102.539L330.14 104.889L323.79 107.369L325.3 111.239L320.63 113.069C320.443 113.142 320.244 113.174 320.044 113.163C319.844 113.153 319.648 113.1 319.47 113.009C319.348 112.951 319.237 112.873 319.14 112.779L316.45 110.249L310.09 112.729L311.61 116.599L304.93 119.219L306.45 123.099C306.51 123.25 306.539 123.411 306.536 123.574C306.533 123.736 306.498 123.896 306.433 124.045C306.368 124.194 306.274 124.328 306.157 124.44C306.04 124.553 305.901 124.641 305.75 124.699L287.46 131.859L279.52 111.609L345.7 85.6992L346.7 86.2292L350.05 87.9592C350.492 88.1785 350.885 88.4851 351.205 88.8605C351.525 89.2359 351.766 89.6724 351.913 90.1435C352.06 90.6145 352.109 91.1105 352.059 91.6013C352.009 92.0922 351.859 92.5677 351.62 92.9992Z" fill="#000080"/>
<g opacity="0.1">
<path d="M351.62 92.9992L351.05 93.9992L350.73 94.5792L349.82 96.2292L350.2 100.459C350.22 100.638 350.2 100.819 350.14 100.989C350.078 101.173 349.977 101.342 349.845 101.483C349.712 101.625 349.55 101.736 349.37 101.809L341.47 104.899C341.289 104.971 341.095 105.001 340.901 104.987C340.707 104.974 340.519 104.916 340.35 104.819C340.238 104.763 340.137 104.689 340.05 104.599L335.58 100.049L329.22 102.539L330.14 104.889L323.79 107.369L325.3 111.239L320.63 113.069C320.443 113.142 320.244 113.174 320.044 113.163C319.844 113.153 319.648 113.1 319.47 113.009C319.348 112.951 319.237 112.873 319.14 112.779L316.45 110.249L310.09 112.729L311.61 116.599L304.93 119.219L306.45 123.099C306.51 123.25 306.539 123.411 306.536 123.574C306.533 123.736 306.498 123.896 306.433 124.045C306.368 124.194 306.274 124.328 306.157 124.44C306.04 124.553 305.901 124.641 305.75 124.699L287.46 131.859L279.52 111.609L345.7 85.6992L346.7 86.2292L350.05 87.9592C350.492 88.1785 350.885 88.4851 351.205 88.8605C351.525 89.2359 351.766 89.6724 351.913 90.1435C352.06 90.6145 352.109 91.1105 352.059 91.6013C352.009 92.0922 351.859 92.5677 351.62 92.9992Z" fill="white"/>
</g>
<path d="M351.36 90.7186L280.6 118.419L278.54 113.219L346 86.8086L349.36 88.5286C350.64 89.1886 351.37 89.7986 351.36 90.7186Z" fill="#000080"/>
<path opacity="0.1" d="M351.36 90.7186L280.6 118.419L278.54 113.219L346 86.8086L349.36 88.5286C350.64 89.1886 351.37 89.7986 351.36 90.7186Z" fill="black"/>
<path d="M350 94.6185L349.32 96.1585C349.314 96.1849 349.314 96.2121 349.32 96.2385L349.71 100.418C349.735 100.567 349.735 100.72 349.71 100.868C349.703 100.894 349.691 100.917 349.673 100.936C349.656 100.955 349.634 100.97 349.61 100.978L341.02 104.358C340.998 104.371 340.974 104.377 340.95 104.377C340.925 104.377 340.901 104.371 340.88 104.358C340.794 104.307 340.716 104.243 340.65 104.168L335.73 99.2285C335.705 99.2113 335.675 99.2021 335.645 99.2021C335.614 99.2021 335.585 99.2113 335.56 99.2285L328.56 101.968C328.521 101.986 328.491 102.017 328.474 102.056C328.458 102.095 328.456 102.139 328.47 102.178L329.3 104.288C329.308 104.308 329.312 104.329 329.312 104.351C329.312 104.372 329.307 104.393 329.299 104.412C329.29 104.432 329.278 104.45 329.263 104.464C329.248 104.479 329.23 104.491 329.21 104.498L323.26 106.838C323.24 106.846 323.222 106.858 323.206 106.873C323.191 106.887 323.179 106.905 323.171 106.925C323.162 106.944 323.158 106.965 323.158 106.986C323.158 107.008 323.162 107.029 323.17 107.048L324.6 110.678C324.609 110.698 324.615 110.719 324.615 110.741C324.616 110.763 324.612 110.784 324.603 110.804C324.595 110.824 324.582 110.842 324.566 110.857C324.55 110.871 324.53 110.882 324.51 110.888L320.15 112.608C320.128 112.621 320.104 112.627 320.08 112.627C320.055 112.627 320.031 112.621 320.01 112.608C319.918 112.557 319.834 112.493 319.76 112.418L316.56 109.478C316.535 109.464 316.508 109.457 316.48 109.457C316.452 109.457 316.424 109.464 316.4 109.478L309.47 112.208C309.449 112.215 309.43 112.226 309.414 112.24C309.398 112.255 309.385 112.273 309.376 112.293C309.368 112.313 309.364 112.334 309.364 112.356C309.365 112.378 309.37 112.399 309.38 112.418L310.84 116.138C310.849 116.158 310.855 116.179 310.855 116.201C310.856 116.223 310.852 116.244 310.843 116.264C310.835 116.284 310.822 116.302 310.806 116.317C310.79 116.331 310.77 116.342 310.75 116.348L284.14 126.818C284.101 126.832 284.059 126.83 284.022 126.813C283.985 126.796 283.955 126.766 283.94 126.728L281.2 119.998C281.186 119.959 281.188 119.915 281.204 119.876C281.221 119.837 281.251 119.806 281.29 119.788L350.63 92.4985C350.66 92.4872 350.692 92.4852 350.723 92.4928C350.755 92.5003 350.783 92.517 350.804 92.5407C350.826 92.5644 350.84 92.594 350.844 92.6257C350.849 92.6574 350.844 92.6897 350.83 92.7185L350 94.6185Z" fill="#000080"/>
<path opacity="0.1" d="M350 94.6185L349.32 96.1585C349.314 96.1849 349.314 96.2121 349.32 96.2385L349.71 100.418C349.735 100.567 349.735 100.72 349.71 100.868C349.703 100.894 349.691 100.917 349.673 100.936C349.656 100.955 349.634 100.97 349.61 100.978L341.02 104.358C340.998 104.371 340.974 104.377 340.95 104.377C340.925 104.377 340.901 104.371 340.88 104.358C340.794 104.307 340.716 104.243 340.65 104.168L335.73 99.2285C335.705 99.2113 335.675 99.2021 335.645 99.2021C335.614 99.2021 335.585 99.2113 335.56 99.2285L328.56 101.968C328.521 101.986 328.491 102.017 328.474 102.056C328.458 102.095 328.456 102.139 328.47 102.178L329.3 104.288C329.308 104.308 329.312 104.329 329.312 104.351C329.312 104.372 329.307 104.393 329.299 104.412C329.29 104.432 329.278 104.45 329.263 104.464C329.248 104.479 329.23 104.491 329.21 104.498L323.26 106.838C323.24 106.846 323.222 106.858 323.206 106.873C323.191 106.887 323.179 106.905 323.171 106.925C323.162 106.944 323.158 106.965 323.158 106.986C323.158 107.008 323.162 107.029 323.17 107.048L324.6 110.678C324.609 110.698 324.615 110.719 324.615 110.741C324.616 110.763 324.612 110.784 324.603 110.804C324.595 110.824 324.582 110.842 324.566 110.857C324.55 110.871 324.53 110.882 324.51 110.888L320.15 112.608C320.128 112.621 320.104 112.627 320.08 112.627C320.055 112.627 320.031 112.621 320.01 112.608C319.918 112.557 319.834 112.493 319.76 112.418L316.56 109.478C316.535 109.464 316.508 109.457 316.48 109.457C316.452 109.457 316.424 109.464 316.4 109.478L309.47 112.208C309.449 112.215 309.43 112.226 309.414 112.24C309.398 112.255 309.385 112.273 309.376 112.293C309.368 112.313 309.364 112.334 309.364 112.356C309.365 112.378 309.37 112.399 309.38 112.418L310.84 116.138C310.849 116.158 310.855 116.179 310.855 116.201C310.856 116.223 310.852 116.244 310.843 116.264C310.835 116.284 310.822 116.302 310.806 116.317C310.79 116.331 310.77 116.342 310.75 116.348L284.14 126.818C284.101 126.832 284.059 126.83 284.022 126.813C283.985 126.796 283.955 126.766 283.94 126.728L281.2 119.998C281.186 119.959 281.188 119.915 281.204 119.876C281.221 119.837 281.251 119.806 281.29 119.788L350.63 92.4985C350.66 92.4872 350.692 92.4852 350.723 92.4928C350.755 92.5003 350.783 92.517 350.804 92.5407C350.826 92.5644 350.84 92.594 350.844 92.6257C350.849 92.6574 350.844 92.6897 350.83 92.7185L350 94.6185Z" fill="black"/>
<path opacity="0.3" d="M248.07 123.999C246.07 124.785 244.348 126.147 243.121 127.911C241.894 129.676 241.218 131.764 241.178 133.913C241.137 136.061 241.735 138.174 242.895 139.983C244.055 141.792 245.725 143.217 247.694 144.077C249.663 144.937 251.843 145.195 253.959 144.817C256.074 144.438 258.03 143.441 259.579 141.952C261.129 140.463 262.202 138.547 262.663 136.448C263.124 134.349 262.952 132.161 262.17 130.159C261.652 128.827 260.876 127.609 259.885 126.578C258.895 125.546 257.711 124.72 256.401 124.148C255.09 123.575 253.68 123.267 252.25 123.242C250.821 123.217 249.4 123.474 248.07 123.999ZM254.93 142.299C253.333 142.925 251.587 143.064 249.911 142.697C248.236 142.33 246.707 141.475 245.518 140.239C244.329 139.003 243.533 137.442 243.231 135.754C242.929 134.066 243.135 132.326 243.822 130.754C244.509 129.183 245.647 127.85 247.091 126.926C248.535 126.001 250.221 125.525 251.936 125.559C253.651 125.593 255.317 126.134 256.724 127.115C258.131 128.096 259.215 129.472 259.84 131.069C260.671 133.207 260.621 135.587 259.701 137.689C258.78 139.79 257.065 141.44 254.93 142.279V142.299Z" fill="white"/>
<path opacity="0.1" d="M287.21 149.7C286.431 150.762 285.501 151.706 284.45 152.5L248.52 104.91C248.52 104.91 251.69 103.32 252.41 102.84C252.416 102.893 252.433 102.944 252.46 102.99C254 106.32 282.24 143 287.21 149.7Z" fill="white"/>
<path opacity="0.1" d="M282 154C281.78 154.1 271.31 157.29 271.31 157.29L259.64 141.84C261.401 140.08 262.504 137.769 262.766 135.293C263.027 132.817 262.43 130.326 261.076 128.237C259.721 126.148 257.69 124.588 255.323 123.816C252.955 123.045 250.395 123.11 248.07 124C247.587 124.181 247.122 124.405 246.68 124.67L236.36 111C236.36 111 245.43 106.68 246.43 106C246.7 107.93 282 153.6 282 154Z" fill="white"/>
<path d="M239.19 78.9388C238.603 79.635 238.184 80.4565 237.965 81.3401C237.746 82.2237 237.732 83.1459 237.926 84.0356C238.119 84.9252 238.514 85.7587 239.079 86.4718C239.645 87.1849 240.368 87.7586 241.19 88.1488C242.05 88.5488 242.99 88.7388 243.83 89.1488C244.269 89.3257 244.656 89.6097 244.956 89.9748C245.257 90.3399 245.461 90.7745 245.55 91.2388C245.65 92.2388 244.88 93.2388 244.96 94.2388C245.046 94.707 245.228 95.1522 245.495 95.5464C245.762 95.9406 246.107 96.2751 246.51 96.5288C247.32 97.035 248.004 97.7189 248.51 98.5288C248.624 98.7345 248.694 98.9614 248.716 99.1954C248.738 99.4294 248.712 99.6654 248.639 99.8887C248.565 100.112 248.447 100.318 248.291 100.493C248.134 100.669 247.943 100.81 247.73 100.909C247.622 101.099 247.566 101.315 247.566 101.534C247.566 101.753 247.622 101.968 247.73 102.159C247.858 102.289 248.027 102.372 248.208 102.396C248.389 102.419 248.573 102.382 248.73 102.289C249.441 101.844 250.031 101.231 250.448 100.504C250.865 99.7762 251.096 98.957 251.12 98.1188C251.111 97.2883 250.867 96.4772 250.418 95.7786C249.969 95.0799 249.332 94.522 248.58 94.1688C248.485 93.8696 248.451 93.5542 248.48 93.2415C248.509 92.9288 248.601 92.6252 248.75 92.3488C249.2 91.2088 249.66 90.0588 250.12 88.9188C250.194 88.6392 250.206 88.3468 250.156 88.062C250.106 87.7771 249.995 87.5065 249.83 87.2688C249.489 86.9255 249.076 86.6625 248.62 86.4988L245.67 85.2388C244.56 84.7588 241.25 80.3388 245.17 79.0488C244.934 78.5485 244.565 78.123 244.103 77.8195C243.64 77.5159 243.103 77.3461 242.55 77.3288C241.9 77.2973 241.253 77.428 240.667 77.7091C240.08 77.9902 239.573 78.4128 239.19 78.9388Z" fill="#263238"/>
<path d="M244.54 74.1795L244.24 77.6696C245.24 76.0696 247.03 72.9595 246.97 73.0795C246.2 73.4995 245.31 73.7595 244.54 74.1795Z" fill="#263238"/>
<path d="M245.86 76.0901L249.96 72.3001C249.426 72.1152 248.851 72.0847 248.301 72.2121C247.751 72.3394 247.248 72.6195 246.85 73.0201C246.88 72.9301 246.24 74.8701 245.86 76.0901Z" fill="#263238"/>
<path d="M237.53 170.699C232.2 177.319 233.97 182.389 226.61 194.109C235.9 200.989 246.08 202.109 258.73 201.109C260.23 198.459 260.98 195.699 262.48 193.049C264.62 195.709 266.34 197.939 268.48 200.609C275.11 199.609 282.99 197.699 288.23 194.319C283.6 189.009 280.72 182.379 277.76 176.529C276.37 173.779 276.95 172.629 273.26 169.029C261.51 169.569 249.86 169.849 238.12 170.399C238.44 170.449 237.22 170.679 237.53 170.699Z" fill="#263238"/>
<path d="M239 169.59L238.27 172.68C238.16 172.93 238.45 173.16 238.84 173.13L271.23 171.7C271.353 171.714 271.478 171.686 271.582 171.618C271.686 171.55 271.763 171.448 271.8 171.33L271.97 168.26C271.97 168.06 271.7 167.88 271.36 167.91L239.55 169.31C239.442 169.305 239.334 169.329 239.238 169.378C239.142 169.427 239.06 169.5 239 169.59Z" fill="#000080"/>
<path d="M239 169.59L238.27 172.68C238.16 172.93 238.45 173.16 238.84 173.13L271.23 171.7C271.353 171.714 271.478 171.686 271.582 171.618C271.686 171.55 271.763 171.448 271.8 171.33L271.97 168.26C271.97 168.06 271.7 167.88 271.36 167.91L239.55 169.31C239.442 169.305 239.334 169.329 239.238 169.378C239.142 169.427 239.06 169.5 239 169.59Z" fill="#000080"/>
<path d="M246.13 173.14H245.19C245.01 173.14 244.86 173.06 244.87 172.95L245.12 168.95C245.12 168.83 245.29 168.73 245.47 168.73L246.42 168.68C246.59 168.68 246.74 168.76 246.73 168.88L246.48 172.88C246.47 173 246.31 173.13 246.13 173.14Z" fill="#263238"/>
<path d="M269.51 172.129H268.57C268.39 172.129 268.24 172.049 268.25 171.939L268.5 167.939C268.5 167.819 268.67 167.709 268.85 167.709H269.79C269.97 167.709 270.11 167.789 270.1 167.899L269.85 171.899C269.85 171.999 269.7 172.119 269.51 172.129Z" fill="#263238"/>
<path d="M250.31 153.718C250.37 154.008 252.88 158.008 254.86 157.718C255.142 157.68 255.428 157.716 255.692 157.823C255.955 157.93 256.186 158.104 256.36 158.328C257.15 159.328 257.63 159.948 258.16 160.628C258.58 161.165 259.171 161.543 259.834 161.699C260.498 161.855 261.194 161.781 261.81 161.488C262.18 161.318 262.55 161.128 262.92 160.928C263.517 160.616 263.992 160.112 264.268 159.497C264.544 158.882 264.604 158.192 264.44 157.538C264.073 156.064 263.505 154.647 262.75 153.328C262.527 152.859 262.182 152.458 261.75 152.168C259.672 151.373 257.495 150.862 255.28 150.648C253.58 150.718 251.92 152.998 250.31 153.718Z" fill="#E8BFBF"/>
<path d="M255.38 150.529C255.38 150.529 228.8 142.479 223.06 147.839C219.69 150.989 221.28 153.969 223.17 155.839C224.57 157.269 227.62 156.919 229.62 156.839L250.56 154.779L255.38 150.529Z" fill="#E8BFBF"/>
<path d="M240.1 146.849C239.98 146.133 239.685 145.459 239.239 144.886C238.794 144.314 238.214 143.861 237.55 143.569C236.218 143.005 234.802 142.667 233.36 142.569L223.36 141.299C221.563 143.515 220.553 146.266 220.49 149.119C220.561 151.878 221.569 154.53 223.35 156.639C224.95 153.549 227.06 150.369 230.18 148.829C233.3 147.289 236.68 146.229 240.1 146.849Z" fill="#263238"/>
<path opacity="0.1" d="M233.25 98.2994C233.25 98.2394 233.25 98.2094 233.25 98.1994C233.46 98.1394 233.43 98.1794 233.25 98.2994Z" fill="white"/>
<path d="M299.29 55.2607L306.69 69.0007L336.91 43.3407C336.963 43.2946 336.997 43.2303 337.004 43.1605C337.012 43.0908 336.993 43.0206 336.952 42.964C336.91 42.9074 336.849 42.8685 336.78 42.8549C336.711 42.8413 336.64 42.8541 336.58 42.8907L308.25 61.5907L303.89 53.0707L299.29 55.2607Z" fill="#000080"/>
<path d="M282.59 82.63L294.81 69C292.978 67.2165 291.516 65.0894 290.507 62.7404C289.498 60.3913 288.962 57.8664 288.93 55.31C288.93 42.73 302.09 32.5 318.27 32.5C334.45 32.5 347.62 42.73 347.62 55.31C347.62 67.89 334.45 78.11 318.27 78.11C312.575 78.159 306.954 76.824 301.89 74.22L282.59 82.63ZM318.27 33.82C302.81 33.82 290.27 43.47 290.27 55.33C290.311 57.819 290.857 60.2737 291.877 62.5446C292.896 64.8156 294.367 66.8555 296.2 68.54L296.64 68.97L287.59 79.06L302 72.8L302.28 72.95C307.212 75.5419 312.708 76.8748 318.28 76.83C333.75 76.83 346.33 67.19 346.33 55.33C346.33 43.47 333.74 33.82 318.27 33.82Z" fill="#000080"/>
</g>
<defs>
<clipPath id="clip0_2047_2995">
<rect width="500" height="372" fill="white"/>
</clipPath>
</defs>
</svg>
