<svg width="536" height="229" viewBox="0 0 536 229" fill="none" xmlns="http://www.w3.org/2000/svg">
<path d="M208.778 160L187.984 112.433H197.565L216.116 155.447H210.612L229.367 112.433H238.201L217.476 160H208.778ZM262.107 160V152.661L261.632 151.098V138.255C261.632 135.763 260.884 133.838 259.389 132.479C257.894 131.075 255.629 130.373 252.594 130.373C250.555 130.373 248.539 130.69 246.546 131.324C244.598 131.958 242.945 132.841 241.586 133.974L238.256 127.79C240.204 126.295 242.514 125.185 245.187 124.461C247.905 123.69 250.714 123.305 253.613 123.305C258.868 123.305 262.923 124.574 265.777 127.111C268.676 129.602 270.126 133.476 270.126 138.731V160H262.107ZM250.691 160.476C247.973 160.476 245.595 160.023 243.556 159.117C241.518 158.165 239.932 156.874 238.799 155.243C237.712 153.567 237.169 151.687 237.169 149.603C237.169 147.565 237.644 145.73 238.596 144.099C239.592 142.468 241.2 141.177 243.42 140.226C245.64 139.274 248.585 138.799 252.254 138.799H262.787V144.439H252.866C249.966 144.439 248.018 144.914 247.022 145.866C246.025 146.772 245.527 147.904 245.527 149.263C245.527 150.804 246.138 152.027 247.362 152.933C248.585 153.839 250.284 154.292 252.458 154.292C254.542 154.292 256.399 153.816 258.03 152.865C259.706 151.914 260.907 150.509 261.632 148.652L263.059 153.748C262.243 155.878 260.771 157.531 258.642 158.709C256.558 159.887 253.908 160.476 250.691 160.476ZM281.027 160V109.579H289.521V160H281.027ZM310.319 160L294.758 123.713H303.591L316.978 155.719H312.629L326.492 123.713H334.646L319.085 160H310.319ZM356.016 160.476C351.984 160.476 348.45 159.683 345.415 158.097C342.425 156.466 340.092 154.247 338.416 151.438C336.785 148.629 335.969 145.435 335.969 141.857C335.969 138.232 336.762 135.039 338.348 132.275C339.979 129.466 342.198 127.269 345.007 125.684C347.861 124.098 351.1 123.305 354.724 123.305C358.258 123.305 361.407 124.076 364.17 125.616C366.933 127.156 369.108 129.331 370.693 132.139C372.279 134.948 373.072 138.255 373.072 142.06C373.072 142.423 373.049 142.831 373.004 143.284C373.004 143.737 372.981 144.167 372.936 144.575H342.697V138.935H368.451L365.121 140.701C365.167 138.617 364.736 136.783 363.83 135.197C362.924 133.612 361.678 132.366 360.093 131.46C358.552 130.554 356.763 130.101 354.724 130.101C352.641 130.101 350.806 130.554 349.22 131.46C347.68 132.366 346.457 133.634 345.551 135.265C344.69 136.851 344.26 138.731 344.26 140.905V142.264C344.26 144.439 344.758 146.364 345.755 148.04C346.751 149.716 348.156 151.008 349.968 151.914C351.78 152.82 353.864 153.273 356.219 153.273C358.258 153.273 360.093 152.956 361.724 152.321C363.354 151.687 364.804 150.69 366.073 149.331L370.625 154.564C368.995 156.466 366.933 157.939 364.442 158.981C361.995 159.977 359.187 160.476 356.016 160.476ZM392.443 160.476C389.408 160.476 386.486 160.091 383.677 159.32C380.914 158.505 378.717 157.531 377.086 156.398L380.347 149.943C381.978 150.985 383.926 151.846 386.191 152.525C388.457 153.205 390.722 153.544 392.987 153.544C395.66 153.544 397.585 153.182 398.763 152.457C399.986 151.732 400.597 150.758 400.597 149.535C400.597 148.539 400.19 147.791 399.374 147.293C398.559 146.749 397.494 146.341 396.181 146.07C394.867 145.798 393.394 145.549 391.764 145.322C390.178 145.096 388.57 144.801 386.939 144.439C385.353 144.031 383.904 143.465 382.59 142.74C381.276 141.97 380.212 140.951 379.396 139.682C378.581 138.414 378.173 136.737 378.173 134.654C378.173 132.343 378.83 130.35 380.144 128.674C381.457 126.952 383.292 125.638 385.648 124.732C388.049 123.781 390.88 123.305 394.142 123.305C396.588 123.305 399.057 123.577 401.549 124.121C404.04 124.664 406.102 125.435 407.733 126.431L404.471 132.887C402.749 131.845 401.005 131.143 399.238 130.78C397.517 130.373 395.795 130.169 394.074 130.169C391.492 130.169 389.566 130.554 388.298 131.324C387.075 132.094 386.463 133.068 386.463 134.246C386.463 135.333 386.871 136.149 387.686 136.692C388.502 137.236 389.566 137.666 390.88 137.983C392.194 138.3 393.644 138.572 395.229 138.799C396.86 138.98 398.468 139.274 400.054 139.682C401.639 140.09 403.089 140.656 404.403 141.381C405.762 142.06 406.849 143.034 407.665 144.303C408.48 145.571 408.888 147.225 408.888 149.263C408.888 151.529 408.208 153.499 406.849 155.175C405.535 156.852 403.655 158.165 401.209 159.117C398.763 160.023 395.841 160.476 392.443 160.476ZM418.529 173.659C416.762 173.659 414.996 173.364 413.229 172.775C411.462 172.186 409.99 171.371 408.812 170.329L412.209 164.077C413.07 164.847 414.044 165.459 415.131 165.912C416.219 166.365 417.329 166.591 418.461 166.591C420.001 166.591 421.247 166.206 422.199 165.436C423.15 164.666 424.033 163.375 424.849 161.563L426.955 156.806L427.635 155.787L441.361 123.713H449.516L432.527 162.922C431.395 165.64 430.126 167.792 428.722 169.378C427.363 170.963 425.823 172.073 424.101 172.707C422.425 173.341 420.568 173.659 418.529 173.659ZM426.004 161.291L409.627 123.713H418.461L431.78 155.039L426.004 161.291ZM475.414 123.305C478.313 123.305 480.896 123.872 483.161 125.004C485.471 126.137 487.283 127.881 488.597 130.237C489.911 132.547 490.568 135.537 490.568 139.206V160H482.074V140.294C482.074 137.077 481.303 134.676 479.763 133.091C478.268 131.505 476.162 130.712 473.443 130.712C471.45 130.712 469.683 131.12 468.143 131.935C466.603 132.751 465.402 133.974 464.542 135.605C463.726 137.19 463.319 139.206 463.319 141.653V160H454.824V123.713H462.911V133.498L461.484 130.508C462.752 128.198 464.587 126.431 466.988 125.208C469.434 123.94 472.243 123.305 475.414 123.305ZM518.058 160.476C514.252 160.476 510.855 159.683 507.865 158.097C504.92 156.466 502.61 154.247 500.934 151.438C499.257 148.629 498.419 145.435 498.419 141.857C498.419 138.232 499.257 135.039 500.934 132.275C502.61 129.466 504.92 127.269 507.865 125.684C510.855 124.098 514.252 123.305 518.058 123.305C521.591 123.305 524.694 124.03 527.367 125.48C530.085 126.884 532.147 128.968 533.551 131.732L527.028 135.537C525.94 133.815 524.604 132.547 523.018 131.732C521.478 130.916 519.802 130.508 517.99 130.508C515.906 130.508 514.026 130.961 512.35 131.867C510.674 132.774 509.36 134.087 508.408 135.809C507.457 137.485 506.981 139.501 506.981 141.857C506.981 144.212 507.457 146.251 508.408 147.972C509.36 149.649 510.674 150.94 512.35 151.846C514.026 152.752 515.906 153.205 517.99 153.205C519.802 153.205 521.478 152.797 523.018 151.982C524.604 151.166 525.94 149.898 527.028 148.176L533.551 151.982C532.147 154.7 530.085 156.806 527.367 158.301C524.694 159.751 521.591 160.476 518.058 160.476Z" fill="#282973"/>
<path d="M95.3999 178.1V150.3L115 169.9C117.1 168.2 119.1 166.2 120.8 164.1L101.2 144.5H129C129.1 143.2 129.2 141.8 129.2 140.4C129.2 139 129.1 137.6 129 136.3H101.2L120.8 116.6C119.1 114.5 117.1 112.5 115 110.8L95.3999 130.4V102.6C94.0999 102.5 92.6999 102.4 91.2999 102.4C89.8999 102.4 88.5 102.5 87.2 102.6V130.4L67.5999 110.8C65.4999 112.5 63.4999 114.5 61.7999 116.6L81.3999 136.2H53.5999C53.4999 137.5 53.3999 138.9 53.3999 140.3C53.3999 141.7 53.4999 143.1 53.5999 144.4H81.3999L61.7999 164C63.4999 166.1 65.4999 168.1 67.5999 169.8L87.2 150.2V178C88.5 178.1 89.8999 178.2 91.2999 178.2C92.6999 178.2 93.9999 178.2 95.3999 178.1ZM89.5999 144.5L87.2 142.1V138.7L89.5999 136.3H92.9999L95.3999 138.7V142.1L92.9999 144.5H89.5999Z" fill="#282973"/>
<path d="M143.3 140.4C143.3 111.7 120 88.4004 91.2998 88.4004C62.5998 88.4004 39.2998 111.7 39.2998 140.4C39.2998 169.1 62.5998 192.4 91.2998 192.4C120 192.4 143.3 169.1 143.3 140.4ZM87.1998 178.1C79.7998 177.3 73.0998 174.4 67.5998 170L63.6998 173.9L57.8998 168.1L61.7998 164.2C57.3998 158.7 54.4998 152 53.6998 144.6H48.0998V136.4H53.6998C54.4998 129 57.3998 122.3 61.7998 116.8L57.8998 112.9L63.6998 107.1L67.5998 111C73.0998 106.6 79.7998 103.7 87.1998 102.9V97.3004H95.3998V102.9C102.8 103.7 109.5 106.6 115 111L118.9 107.1L124.7 112.9L120.8 116.6C125.2 122.1 128.1 128.8 128.9 136.2H134.5V144.4H128.9C128.1 151.8 125.2 158.5 120.8 164L124.7 167.9L118.9 173.7L115 169.8C109.5 174.2 102.8 177.1 95.3998 177.9V183.5H87.1998V178.1Z" fill="#282973"/>
<path d="M96.9 220.5V209.5V198.9C94.5 199.2 92 199.4 89.4 199.4C56.8 199.4 30.3 172.9 30.3 140.3C30.3 107.7 56.8 81.2002 89.4 81.2002C91.9 81.2002 94.4 81.4002 96.9 81.7002V71.1002V60.1002C96.9 55.5002 93.1 51.7002 88.5 51.7002C83.9 51.7002 80.1 55.5002 80.1 60.1002V71.1002C67.2 72.7002 55.3 77.8002 45.6 85.4002L37.8 77.6002C34.5 74.3002 29.2 74.3002 25.9 77.6002C22.6 80.9002 22.6 86.2002 25.9 89.5002L33.7 97.3002C26.1 107.1 21 118.9 19.4 131.8H8.39996C3.79996 131.8 0 135.6 0 140.2C0 144.8 3.79996 148.6 8.39996 148.6H19.4C21 161.5 26.1 173.4 33.7 183.1L25.9 190.9C22.6 194.2 22.6 199.5 25.9 202.8C29.2 206.1 34.5 206.1 37.8 202.8L45.6 195C55.4 202.6 67.2 207.7 80.1 209.3V220.3C80.1 224.9 83.9 228.7 88.5 228.7C93.1 229 96.9 225.2 96.9 220.5Z" fill="#282973"/>
<path d="M105.6 0C99.3998 10.4 99.3998 21.1 101.9 31.9C105 45.3 112.4 56.7 119.9 68.1C128.3 80.8 137.2 93.3 144.1 106.9C158.1 134.5 154.9 160.3 135.7 184.3C133.6 186.9 131.6 189.5 129.7 192C169 172.8 181.3 132.5 159.2 95.2C149.8 79.3 137.5 65.4 126.8 50.4C116.8 36.3 106.2 22.3 107.9 3.39996C108 2.49996 106.7 1.6 105.6 0Z" fill="#282973"/>
</svg>
